<svg id="Capa_1" enable-background="new 0 0 512 512" height="512" viewBox="0 0 512 512" width="512" xmlns="http://www.w3.org/2000/svg"><g><path d="m495.905 263 .167.006c.221.007.441.015.663.018 4.043.052 7.907-1.478 10.778-4.298s4.487-6.676 4.487-10.7v-104.025l-261-41-251 41v320c0 8.284 6.716 15 15 15h92.338.02c8.284 0 15-6.716 15-15 0-2.365-.547-4.603-1.522-6.593-1.218-2.989-1.835-6.15-1.835-9.407 0-13.785 11.215-25 25-25s25 11.215 25 25c0 3.47-.701 6.831-2.082 9.992-2.027 4.638-1.579 9.984 1.192 14.22 2.771 4.235 7.491 6.788 12.552 6.788h316.337c8.284 0 15-6.716 15-15v-104.026c0-4.024-1.617-7.88-4.487-10.7-2.87-2.819-6.737-4.338-10.778-4.298-.222.004-.442.012-.663.019l-.072.005c-22.607 0-41-18.393-41-41s18.393-41 40.905-41.001z" fill="#f5d868"/><path d="m495.905 263 .167.006c.221.007.441.015.663.018 4.043.052 7.907-1.478 10.778-4.298s4.487-6.676 4.487-10.7v-104.025l-256-40.215v375.215h241c8.284 0 15-6.716 15-15v-104.026c0-4.024-1.617-7.88-4.487-10.7-2.87-2.819-6.737-4.338-10.778-4.298-.222.004-.442.012-.663.019l-.072.005c-22.607 0-41-18.393-41-41s18.393-41 40.905-41.001z" fill="#eabc3e"/><path d="m512 144.001h-205.4l-50.6 24-50.6-24h-205.4c0-4.58 2.09-8.91 5.68-11.75l121-96c3.71-2.95 8.6-3.97 13.18-2.74l116.14 30.97 242.12 64.56c8.77 2.62 13.57 6.78 13.87 14.22.01.24.01.49.01.74z" fill="#eabc3e"/><path d="m512 144.001h-205.4l-50.6 24v-103.52l242.12 64.56c8.77 2.62 13.57 6.78 13.87 14.22.01.24.01.49.01.74z" fill="#e59022"/><circle cx="144" cy="288.001" fill="#e59022" r="32"/><circle cx="336" cy="368.001" fill="#cc6a09" r="32"/><path d="m205.396 144.001c-3.457 7.275-5.396 15.41-5.396 24 0 30.928 25.072 56 56 56s56-25.072 56-56c0-8.59-1.94-16.725-5.397-24z" fill="#e59022"/><path d="m306.603 144.001h-50.603v80c30.928 0 56-25.072 56-56 0-8.59-1.94-16.725-5.397-24z" fill="#cc6a09"/></g></svg>