<svg enable-background="new 0 0 110 110" height="512" viewBox="0 0 110 110" width="512" xmlns="http://www.w3.org/2000/svg"><path d="m84.993309 55.8191452c-2.8144989 5.8898163-19.9216156 21.559288-37.9064713 26.4153671-17.6964359 6.1838913-36.2705727 1.5546494-35.3529434-2.4875565-.004982-4.0266571 14.9757385-8.3125534 26.0260124-17.1104774 11.767849-8.062233 19.6051331-20.6368523 21.8911171-24.2419815 4.9918365-7.0358601 13.5567856-11.7649288 21.0604858-7.7257042 7.9890596 4.3004875 12.2928926 13.4953461 4.2817994 25.1503525z" fill="#de594e"/><path d="m87.6697922 50.8347702c-2.816452 5.8886986-19.9207916 21.5572815-37.9034996 26.4142609-15.6245995 5.4613647-31.9262619 2.491745-34.9036369-1.0549927-1.9410057 1.2661591-3.124773 2.4188461-3.1262741 3.5481796-.9182682 4.0450821 17.6491203 8.6738968 35.3474731 2.4884872 17.9853134-4.8477249 35.0989227-20.5189133 37.9128189-26.416893 1.268158-1.8458557 2.225708-3.6241951 2.9121933-5.3361626-.0756912.1213303-.1632919.2358895-.2390747.3571206z" fill="#a64139"/><path d="m98.2215347 26.9613304v-.0002556c-.1880951-.667429-.6990356-1.1988373-1.3640976-1.3960209-2.8492355-.8455467-10.8320236-2.4081688-17.381485 3.9318924-1.544838-.665638-4.1396942-1.4103527-7.0707626-.6963482-2.4320984.5924454-8.3507309 2.982317-10.9887733 5.3092308-.2110672.1861801-.0518265.5342255.2282104.5054359 1.9779091-.2034531 7.0240593-.7745323 9.5155907-1.5367775 2.8283844-.8652496 3.9171829-.3953896 5.7983551.3828506-1.3781128 1.4477158-3.0936432 4.1015663-4.5844803 8.9780426-.8238525 2.6947937-3.3443756 5.3895874-5.0000839 6.9396706-.38797.3633995-.0511856 1.0060043.4648056.8786888 3.2567902-.8037033 9.6050339-2.6565361 11.9794235-5.3597755 1.4983902-1.7059364 2.8725281-3.135994 3.9237671-4.187809 1.2293549 3.0244141 3.2302322 4.830925 2.1681213 8.2758102-.9674911 3.1379128 1.0962143 7.1779289 1.0962143 7.1779289 2.5020294-2.2026672 2.5361938-5.7775574 3.1844254-8.4134903 1.1586609-4.7116699-1.4583359-8.5657616-1.4583359-8.5657616l-.8525848-1.2299309c.0668564-1.012661.6839371-7.4279613 5.6224747-8.0430546l3.0091248-.3747883c1.238182-.1541898 2.0484771-1.3745248 1.7100905-2.5755384z" fill="#4abba4"/></svg>