<svg id="Layer_1" height="512" viewBox="0 0 512 512" width="512" xmlns="http://www.w3.org/2000/svg" data-name="Layer 1"><path d="m438.86 166.47 6.56-11.17c-12.78-4.1-39.85 14.95-39.85 14.95l4.19-12.22c-17.37.13-29.62 14.03-30 14.46l-.01.01a80.645 80.645 0 0 1 -19.73 24.29l18.53-3.69c-3.72 15.68-25.01 26.76-25.01 26.76h18.51c-6.02 19.23-22.86 21.73-22.86 21.73l28.97 24.26h.01a138.333 138.333 0 0 1 29.59.59 40.741 40.741 0 0 0 29.71-16.58l-17.52-5.97s23.74-3.62 32.35-17.26l-18.73-2.48s25.18-8.49 38.58-31.71c6.44-18.78 23.85-19.91 23.85-19.91-31.61-19.78-57.14-6.06-57.14-6.06z" fill="#81c83d"/><path d="m346.32 140.5 2.59-12.68c-13.42.23-32.86 26.98-32.86 26.98v-12.91c-10.18 5.07-20.03 19.75-20.03 19.75l12.14 79.17a.037.037 0 0 1 -.01.03c14.11-1.81 27.99-1.81 41.04.75 0 0 16.84-2.5 22.86-21.73h-18.51s21.29-11.08 25.01-26.76l-18.53 3.69a80.645 80.645 0 0 0 19.73-24.29l.01-.01a66.211 66.211 0 0 0 6.49-18.15c0-19.84 16.11-26.52 16.11-26.52-36.33-8.53-56.04 12.68-56.04 12.68z" fill="#9be147"/><path d="m307.158 247.849a6.006 6.006 0 0 1 -5.785-7.6c.7-2.533 17.73-62.47 64.011-100.6a6 6 0 1 1 7.631 9.261c-43.389 35.753-59.917 93.966-60.079 94.55a6 6 0 0 1 -5.778 4.389z" fill="#85ba3a"/><path d="m368.525 256.667a6 6 0 0 1 -4.932-9.409c1.513-2.191 37.7-53.918 93.843-75.086a6 6 0 0 1 4.234 11.228c-52.671 19.857-87.852 70.169-88.2 70.675a5.992 5.992 0 0 1 -4.945 2.592z" fill="#6ba331"/><path d="m457.99 299.72-112.99 64.44-33.87 22.4c1.04 1.11 33.88 35.21 107.22 3.92 59.57-25.42 40.14-89.14 39.64-90.76z" fill="#e0d7d5"/><path d="m132.25 111.1c-79.72 21.39-130.23 91-112.82 155.46 12.84 47.53 60.35 78.99 115.88 83.66l132.14-218.63c-34.37-24.97-84.59-34.08-135.2-20.49z" fill="#efe6e4"/><path d="m308.11 189.07a99.682 99.682 0 0 0 -12.09-27.43 110.228 110.228 0 0 0 -28.57-30.05c-65.57-19.3-147.21 5.65-180.74 79.29-42.86 94.1 42.87 136.63 48.6 139.34 4.57.39 9.2.59 13.86.61l158.98-109.99a.037.037 0 0 0 .01-.03c3.53-15.92 4.31-35.63-.05-51.74z" fill="#e0d7d5"/><path d="m457.99 299.72a.077.077 0 0 1 -.01-.03c-3.13-17.46-23.11-29.64-50.22-33.25a138.333 138.333 0 0 0 -29.59-.59h-.01l-33.16 98.31a161.055 161.055 0 0 0 35.46-1.87c47.48-8.47 82.17-36.48 77.53-62.57z" fill="#efe6e4"/><path d="m378.36 267.35-230.72 74.18a61.621 61.621 0 0 0 1.53 9.3c4.72 20.15 23.51 65.22 96.65 54.84 25.44-3.62 47.18-10.27 65.31-19.11a147.368 147.368 0 0 0 33.87-22.4c30.65-27.38 41.36-63.48 33.36-96.81z" fill="#dddcd4"/><path d="m308.15 240.84c14.11-1.81 27.99-1.81 41.04.75a93.922 93.922 0 0 1 9.88 2.49 29.265 29.265 0 0 1 10.46 5.59 25.512 25.512 0 0 1 8.63 16.18c.08.5.14.99.2 1.5 3.56 34.23-41.79 92.65-118.47 106.59-75.51 13.74-108.12-4.24-112.25-32.41-2.31-15.83 5.25-31.48 18.61-40.33 26.24-17.38 85.87-53.16 141.9-60.36z" fill="#ebede4"/><ellipse cx="285" cy="277.2" fill="#cbcebe" rx="3.59" ry="3.58"/><path d="m49.43 266.56c-17.41-64.46 33.1-134.07 112.82-155.46a184.126 184.126 0 0 1 32.012-5.64 179.273 179.273 0 0 0 -62.012 5.64c-79.72 21.39-130.23 91-112.82 155.46 12.84 47.53 60.35 78.99 115.88 83.66l2.781-4.6c-43.312-11.132-77.982-39.529-88.661-79.06z" fill="#d8cdcb"/><path d="m177.64 341.53c-2.31-15.83 5.25-31.48 18.61-40.33 26.24-17.38 85.87-53.16 141.9-60.36 1.215-.156 2.428-.293 3.639-.422a135.763 135.763 0 0 0 -33.639.422c-56.03 7.2-115.66 42.98-141.9 60.36-13.36 8.85-20.92 24.5-18.61 40.33 3.521 24.019 27.754 40.624 81.622 36.482-33.101-3.129-48.837-17.488-51.622-36.482z" fill="#cccec0"/><g fill="#c6bebd"><path d="m121.635 246.847a6.878 6.878 0 1 1 6.881-6.878 6.887 6.887 0 0 1 -6.881 6.878z"/><path d="m164.953 174.754a7.4 7.4 0 1 1 7.4-7.4 7.411 7.411 0 0 1 -7.4 7.4z"/><path d="m183.636 235.381a7.168 7.168 0 1 1 7.172-7.168 7.178 7.178 0 0 1 -7.172 7.168z"/><path d="m241.152 173.354a6.7 6.7 0 1 1 6.7-6.7 6.708 6.708 0 0 1 -6.7 6.7z"/><path d="m282.605 218.959a7.189 7.189 0 1 1 7.193-7.188 7.2 7.2 0 0 1 -7.193 7.188z"/><path d="m133.655 303.216a7.193 7.193 0 1 1 7.2-7.193 7.2 7.2 0 0 1 -7.2 7.193z"/></g><path d="m200.95 335.037a6.928 6.928 0 1 1 6.931-6.928 6.936 6.936 0 0 1 -6.931 6.928z" fill="#cbcebe"/><path d="m251.622 353.864a8.652 8.652 0 1 1 8.659-8.651 8.666 8.666 0 0 1 -8.659 8.651z" fill="#cbcebe"/><path d="m242.112 290.023a4.343 4.343 0 1 0 4.338 4.342 4.345 4.345 0 0 0 -4.338-4.342z" fill="#cbcebe"/><path d="m294.565 309.222a4.555 4.555 0 1 0 4.551 4.554 4.557 4.557 0 0 0 -4.551-4.554z" fill="#cbcebe"/><path d="m334.877 267.615a4.144 4.144 0 1 0 4.138 4.145 4.147 4.147 0 0 0 -4.138-4.145z" fill="#cbcebe"/><path d="m394.924 325.557a4.74 4.74 0 1 0 4.736 4.74 4.743 4.743 0 0 0 -4.736-4.74z" fill="#cec2c0"/><path d="m397.617 277.626a4.575 4.575 0 1 0 4.571 4.575 4.579 4.579 0 0 0 -4.571-4.575z" fill="#cec2c0"/><path d="m432.207 293.692a4.166 4.166 0 1 0 4.16 4.165 4.167 4.167 0 0 0 -4.16-4.165z" fill="#cec2c0"/></svg>