<svg id="Layer_1" height="512" viewBox="0 0 512 512" width="512" xmlns="http://www.w3.org/2000/svg" data-name="Layer 1"><path d="m492.77 322.96a6.309 6.309 0 0 1 3 7.13l-9.84 35.19-107.13-30.43a77.192 77.192 0 0 0 1.24-13.84 65.769 65.769 0 0 0 -4.59-24.03l107.03-39.41 11.01 36.05a6.294 6.294 0 0 1 -2.48 6.96l-8.32 5.95a6.276 6.276 0 0 0 .48 10.68z" fill="#d8be50"/><path d="m485.93 365.28-7.4 26.44a6.86 6.86 0 0 1 -5.43 4.77l-14.27 2.72a6.575 6.575 0 0 0 -5.49 7.86l3.55 14.53a6.273 6.273 0 0 1 -2.16 6.3l-28.39 23.73a7.54 7.54 0 0 1 -8.59.65l-9.5-5.66a7.546 7.546 0 0 0 -7.09-.31l-45.56-72.42c11.53-8.08 20.11-22.19 23.2-39.04z" fill="#d1c679"/><path d="m482.48 257.57-107.03 39.41a64.425 64.425 0 0 0 -23.2-29.64v-.01l51.15-99.31 18.89 9.24a6.433 6.433 0 0 1 3.74 6.39l-.92 9.27c-.45 4.46 3.96 8.01 8.67 6.98l9.45-2.05a7.358 7.358 0 0 1 7.44 2.64l19.86 26.46a6.136 6.136 0 0 1 .09 7.35l-5.53 7.71c-2.91 4.07-.18 9.54 5.06 10.13l6.36.7a6.941 6.941 0 0 1 5.97 4.73z" fill="#d1c679"/><path d="m403.4 168.02-51.15 99.31v.01c-7.42-5.03-15.69-7.93-23.97-7.93l2.01-7.19 9.84-35.18a6.336 6.336 0 0 0 -3.01-7.14l-9.6-5.75a6.28 6.28 0 0 1 -.48-10.68l8.32-5.95a6.264 6.264 0 0 0 2.48-6.96l-9.22-30.2a112.421 112.421 0 0 1 32.5 2.81 6.669 6.669 0 0 1 5.2 6l.28 5.22c.31 5.81 8.05 8.39 12.3 4.1l4.61-4.65a7.514 7.514 0 0 1 8.54-1.37z" fill="#d8be50"/><path d="m355.6 373.89 45.56 72.42a6.67 6.67 0 0 0 -3.6 4.16l-4.05 14.3c-.82 2.88-12.16 8.41-15.38 8.41l-77.98 1.7c-3.46 0-24.71-7.54-25.28-10.7l-2.13-11.81a6.574 6.574 0 0 0 -3.81-4.78l41.81-73.7a37.983 37.983 0 0 0 44.86 0z" fill="#d8be50"/><path d="m380.04 321.01a77.192 77.192 0 0 1 -1.24 13.84c-3.09 16.85-11.67 30.96-23.2 39.04a37.983 37.983 0 0 1 -44.86 0c-13.62-9.54-23.15-27.51-24.33-48.46l12.67-10.59a6.247 6.247 0 0 0 2.16-6.3l-3.54-14.53a6.575 6.575 0 0 1 5.48-7.86l14.28-2.72a6.875 6.875 0 0 0 5.43-4.77l5.38-19.25h.01c8.28 0 16.55 2.9 23.97 7.93a64.425 64.425 0 0 1 23.2 29.64 65.769 65.769 0 0 1 4.59 24.03z" fill="#d1a754"/><path d="m337.12 209.9-9.6-5.75a6.28 6.28 0 0 1 -.48-10.68l8.32-5.95a6.264 6.264 0 0 0 2.48-6.96l-11-36.05-106.4 39.17 2.71 38.11 107.13 30.43h.01l9.84-35.18a6.336 6.336 0 0 0 -3.01-7.14z" fill="#f9d438"/><path d="m330.28 252.22-107.13-30.43-23.2 39.05 45.57 72.42a7.517 7.517 0 0 1 7.09.31l9.5 5.65a7.541 7.541 0 0 0 8.59-.65l15.71-13.14 12.67-10.59a6.247 6.247 0 0 0 2.16-6.3l-3.54-14.53a6.575 6.575 0 0 1 5.48-7.86l14.28-2.72a6.875 6.875 0 0 0 5.43-4.77l7.4-26.44z" fill="#fff27d"/><path d="m320.87 139.78-6.37-.7c-5.23-.59-7.97-6.06-5.05-10.13l5.52-7.71a6.136 6.136 0 0 0 -.08-7.35l-19.86-26.46a7.384 7.384 0 0 0 -7.44-2.64l-9.45 2.05c-4.71 1.03-9.12-2.52-8.68-6.98l.93-9.27a6.465 6.465 0 0 0 -3.75-6.39l-18.88-9.24-50.63 98.29v.01l23.31 30.42 106.4-39.17a6.953 6.953 0 0 0 -5.97-4.73z" fill="#fff27d"/><path d="m310.74 373.89-41.81 73.7a7.57 7.57 0 0 0 -5.65-.28l-16.31 5.62a7.506 7.506 0 0 1 -7.13-1.2l-25.71-20.72a6.248 6.248 0 0 1 -2.05-7.04l4.36-11.91a6.487 6.487 0 0 0 -4.87-8.43l-16.89-4.2a6.793 6.793 0 0 1 -5.07-4.87l-8.24-33.54 41.12-.9c3.22 0 14.55-5.53 15.37-8.41l4.06-14.3a6.6 6.6 0 0 1 3.6-4.15 7.517 7.517 0 0 1 7.09.31l9.5 5.65a7.541 7.541 0 0 0 8.59-.65l15.71-13.14c1.18 20.95 10.71 38.92 24.33 48.46z" fill="#d1c679"/><path d="m236.4 49.41a7.5 7.5 0 0 0 -8.53 1.37l-4.61 4.65c-4.26 4.29-11.99 1.71-12.3-4.1l-.28-5.22a6.648 6.648 0 0 0 -5.2-5.99c-22.85-5.58-44.01-2.06-53.23.07a6.71 6.71 0 0 0 -5.32 5.72l-.66 6.35c-.6 5.78-8.44 8.03-12.48 3.58l-4.9-5.41a7.487 7.487 0 0 0 -8.24-1.8l-13.19 5.26 50.45 99.36h39.22l50.63-98.29z" fill="#f9d438"/><path d="m199.95 260.84h-44.86l-41.8 73.69a6.574 6.574 0 0 1 3.81 4.78l2.13 11.81c.57 3.16 21.81 10.7 25.27 10.7l77.99-1.7c3.22 0 14.55-5.53 15.37-8.41l4.06-14.3a6.6 6.6 0 0 1 3.6-4.15z" fill="#f9d438"/><path d="m107.46 53.89-18.1 7.21a6.493 6.493 0 0 0 -4.2 6.99l1.63 10.08c.8 4.94-4.43 8.86-9.49 7.1l-8.67-3a7.448 7.448 0 0 0 -8.08 2.12l-22.21 26.48a6.152 6.152 0 0 0 -.81 6.82l5.26 10.22c1.95 3.8-.42 8.3-4.87 9.21l-8.26 1.69a6.847 6.847 0 0 0 -5.39 4.97l-2.9 12.04 113.64 26.73 22.9-29.3z" fill="#fff27d"/><path d="m131.51 219.57-103.82 36.4 6.27 25.53a6.836 6.836 0 0 0 5.07 4.88l16.89 4.19a6.493 6.493 0 0 1 4.88 8.43l-4.37 11.91a6.232 6.232 0 0 0 2.06 7.04l25.7 20.73a7.547 7.547 0 0 0 7.14 1.2l16.3-5.63a7.593 7.593 0 0 1 5.66.28l41.8-73.69z" fill="#fff27d"/><path d="m21.37 155.82-5.2 21.56a6.21 6.21 0 0 0 1.62 5.78l10.09 10.48a6.238 6.238 0 0 1 -1.21 9.71l-6.38 4.15a6.325 6.325 0 0 0 -2.83 6.8l10.23 41.67 103.82-36.4 3.5-37.02z" fill="#f9d438"/><g fill="#edb740"><path d="m221.008 183.359c-4.681-13.608-13.112-24.611-23.619-30.822v-.011a38.153 38.153 0 0 0 -39.738 0c-10.214 6.049-18.461 16.607-23.2 29.688a75.27 75.27 0 0 0 -4.428 25.736 78.7 78.7 0 0 0 .881 11.774c2.746 18.055 11.7 33.264 23.892 41.815a38.486 38.486 0 0 0 45.454 0c11.682-8.186 20.386-22.493 23.506-39.566a77.277 77.277 0 0 0 1.267-14.023 76.037 76.037 0 0 0 -4.015-24.591z"/><path d="m299.48 190.2v24.88a2.179 2.179 0 0 1 -2.8 1.96l-43.1-11.17a2.593 2.593 0 0 1 -.08-5.07l43.11-12.55a2.187 2.187 0 0 1 2.87 1.95z"/><path d="m281.03 268.83a1.951 1.951 0 0 1 .54 3.24l-19.03 17.6a2.314 2.314 0 0 1 -3.48-.44l-21.94-36.07c-1.39-2.3 1.3-4.86 3.82-3.65z"/><path d="m278.07 134.71a1.957 1.957 0 0 1 -.69 3.22l-40.98 17.63c-2.58 1.11-5.15-1.56-3.64-3.8l23.66-35.12a2.316 2.316 0 0 1 3.5-.3z"/><path d="m201.85 330.29a2.049 2.049 0 0 1 -1.93 2.76l-26.86 1.49a2.094 2.094 0 0 1 -2.28-2.47l9.48-40.44a2.932 2.932 0 0 1 5.47-.38z"/><path d="m189.82 79.71a2.085 2.085 0 0 1 2.23 2.55l-11.5 40.42a2.939 2.939 0 0 1 -5.49.16l-14.11-39.27a2.064 2.064 0 0 1 1.99-2.68z"/><path d="m123.5 148.9c1.39 2.3-1.31 4.86-3.83 3.64l-39.65-19.19a1.956 1.956 0 0 1 -.58-3.2l18.45-18.11a2.3 2.3 0 0 1 3.52.4z"/><path d="m112.81 252.52c2.54-1.19 5.19 1.41 3.77 3.69l-22.67 36.16a2.31 2.31 0 0 1 -3.53.35l-18.16-18.37a1.954 1.954 0 0 1 .63-3.19z"/></g><path d="m455.12 303.26v24.88a2.175 2.175 0 0 1 -2.8 1.96l-43.09-11.17a2.592 2.592 0 0 1 -.09-5.07l43.12-12.55a2.182 2.182 0 0 1 2.86 1.95z" fill="#d1a754"/><path d="m436.67 381.89a1.951 1.951 0 0 1 .54 3.24l-19.03 17.6a2.311 2.311 0 0 1 -3.48-.45l-21.93-36.06c-1.4-2.3 1.29-4.87 3.82-3.65z" fill="#d1a754"/><path d="m433.72 247.77a1.963 1.963 0 0 1 -.7 3.22l-40.98 17.63c-2.58 1.11-5.14-1.56-3.64-3.8l23.66-35.12a2.317 2.317 0 0 1 3.5-.3z" fill="#d1a754"/><path d="m357.5 443.35a2.053 2.053 0 0 1 -1.93 2.76l-26.86 1.48a2.094 2.094 0 0 1 -2.29-2.46l9.49-40.44a2.932 2.932 0 0 1 5.47-.38z" fill="#d1a754"/><path d="m268.45 365.58c2.55-1.19 5.2 1.41 3.77 3.69l-22.67 36.15a2.3 2.3 0 0 1 -3.53.36l-18.16-18.37a1.956 1.956 0 0 1 .64-3.19z" fill="#d1a754"/><path d="m184.793 261.539c-12.189-8.551-21.146-23.76-23.891-41.815a78.567 78.567 0 0 1 -.882-11.774 75.27 75.27 0 0 1 4.428-25.736c4.742-13.081 12.989-23.639 23.2-29.688a41.736 41.736 0 0 1 4.869-2.468 37.955 37.955 0 0 0 -15-3.114 38.716 38.716 0 0 0 -19.869 5.582c-10.214 6.049-18.461 16.607-23.2 29.688a75.27 75.27 0 0 0 -4.428 25.736 78.567 78.567 0 0 0 .882 11.774c2.745 18.055 11.7 33.264 23.891 41.815a39.369 39.369 0 0 0 22.727 7.427 38.016 38.016 0 0 0 15-3.112 42.65 42.65 0 0 1 -7.727-4.315z" fill="#bc8e31"/><path d="m152.25 40.19a6.71 6.71 0 0 0 -5.32 5.72l-.456 4.385 4.176-1.665a7.487 7.487 0 0 1 8.24 1.8l4.9 5.41c4.04 4.45 11.88 2.2 12.48-3.58l.66-6.351a6.71 6.71 0 0 1 5.32-5.72 119.456 119.456 0 0 1 12.16-2.124 122.533 122.533 0 0 0 -42.16 2.125z" fill="#d1b334"/><path d="m119.36 61.1 14.105-5.619-4.575-5.051a7.487 7.487 0 0 0 -8.24-1.8l-13.19 5.26 7.929 15.616-.229-1.416a6.493 6.493 0 0 1 4.2-6.99z" fill="#d1b334"/><path d="m149.23 351.12-2.13-11.81a6.574 6.574 0 0 0 -3.81-4.78 7.593 7.593 0 0 0 -5.66-.28l-16.3 5.63a7.633 7.633 0 0 1 -4.086.229l1.986 11.011c.57 3.16 21.81 10.7 25.27 10.7l26.921-.587c-6.948-1.833-21.721-7.484-22.191-10.113z" fill="#d1b334"/><path d="m47.79 183.16a6.21 6.21 0 0 1 -1.62-5.78l3.59-14.88-28.39-6.68-5.2 21.56a6.21 6.21 0 0 0 1.62 5.78l10.09 10.48a6.238 6.238 0 0 1 -1.21 9.71l-6.38 4.15a6.325 6.325 0 0 0 -2.83 6.8l10.23 41.67 27.622-9.685-7.852-31.985a6.325 6.325 0 0 1 2.83-6.8l6.38-4.15a6.238 6.238 0 0 0 1.21-9.71z" fill="#d1b334"/><path d="m116.79 78.17-1.4-8.664-7.93-15.616-18.1 7.21a6.493 6.493 0 0 0 -4.2 6.99l1.63 10.08c.8 4.94-4.43 8.86-9.49 7.1l-8.67-3a7.448 7.448 0 0 0 -8.08 2.12l-22.21 26.48a6.152 6.152 0 0 0 -.81 6.82l5.26 10.22c1.95 3.8-.42 8.3-4.87 9.21l-8.26 1.69a6.847 6.847 0 0 0 -5.39 4.97l-2.9 12.04 28.39 6.68 1.61-6.678 2.9-12.04a6.847 6.847 0 0 1 5.39-4.97l8.26-1.69c4.45-.91 6.82-5.41 4.87-9.21l-5.26-10.22a6.152 6.152 0 0 1 .81-6.82l22.21-26.482a7.448 7.448 0 0 1 8.08-2.12l8.67 3c5.06 1.76 10.29-2.16 9.49-7.1z" fill="#d3c667"/><path d="m86.43 310.91 4.37-11.91a6.493 6.493 0 0 0 -4.88-8.43l-16.89-4.19a6.836 6.836 0 0 1 -5.07-4.88l-6.27-25.53-2.378-9.685-27.622 9.685 6.27 25.53a6.836 6.836 0 0 0 5.07 4.88l16.89 4.19a6.493 6.493 0 0 1 4.88 8.43l-4.37 11.91a6.232 6.232 0 0 0 2.06 7.04l25.7 20.73a7.547 7.547 0 0 0 7.14 1.2l16.3-5.63a7.676 7.676 0 0 1 .792-.223l-19.932-16.077a6.232 6.232 0 0 1 -2.06-7.04z" fill="#d3c667"/><path d="m102.26 200.8a2.594 2.594 0 0 1 -.09 5.07l-43.09 11.17a2.175 2.175 0 0 1 -2.8-1.96v-24.88a2.179 2.179 0 0 1 2.86-1.95z" fill="#edb740"/></svg>