<svg id="Layer_1" enable-background="new 0 0 510 510" height="512" viewBox="0 0 510 510" width="512" xmlns="http://www.w3.org/2000/svg"><g><path d="m435.312 74.688c-48.163-48.164-112.199-74.688-180.312-74.688s-132.149 26.524-180.312 74.688c-48.164 48.163-74.688 112.199-74.688 180.312s26.524 132.149 74.688 180.313c48.163 48.163 112.199 74.687 180.312 74.687s132.149-26.524 180.312-74.688c48.164-48.163 74.688-112.199 74.688-180.312s-26.524-132.149-74.688-180.312zm-180.312 405.312c-124.065 0-225-100.935-225-225s100.935-225 225-225 225 100.935 225 225-100.935 225-225 225z"/><path d="m302.352 147.646h60v60h30v-90h-90z"/><path d="m147.647 302.353h-30v90h90v-30h-60z"/><path d="m303.64 176.361h30v30h-30z" transform="matrix(.707 -.707 .707 .707 -41.985 281.36)"/><path d="m261.213 218.786h30.001v30h-30.001z" transform="matrix(.707 -.707 .707 .707 -84.41 263.795)"/><path d="m218.787 261.213h30.001v30h-30.001z" transform="matrix(.707 -.707 .707 .707 -126.839 246.222)"/><path d="m176.361 303.64h30v30h-30z" transform="matrix(.707 -.707 .707 .707 -169.264 228.64)"/></g></svg>