<svg width="178" height="136" viewBox="0 0 178 136" fill="none" xmlns="http://www.w3.org/2000/svg">
<path d="M106.744 105.379C106.223 105.724 105.647 105.904 105.063 105.904C104.479 105.904 103.903 105.724 103.382 105.379C103.179 105.29 103.003 105.121 102.878 104.894C102.754 104.668 102.686 104.397 102.686 104.119C102.686 103.841 102.754 103.57 102.878 103.344C103.003 103.118 103.179 102.948 103.382 102.859C103.903 102.514 104.479 102.334 105.063 102.334C105.647 102.334 106.223 102.514 106.744 102.859C106.946 102.948 107.123 103.118 107.247 103.344C107.372 103.57 107.439 103.841 107.439 104.119C107.439 104.397 107.372 104.668 107.247 104.894C107.123 105.121 106.946 105.29 106.744 105.379V105.379Z" fill="#C0751D"/>
<path opacity="0.4" d="M106.744 105.379C106.223 105.724 105.647 105.904 105.063 105.904C104.479 105.904 103.903 105.724 103.382 105.379C103.179 105.29 103.003 105.121 102.878 104.894C102.754 104.668 102.686 104.397 102.686 104.119C102.686 103.841 102.754 103.57 102.878 103.344C103.003 103.118 103.179 102.948 103.382 102.859C103.903 102.514 104.479 102.334 105.063 102.334C105.647 102.334 106.223 102.514 106.744 102.859C106.946 102.948 107.123 103.118 107.247 103.344C107.372 103.57 107.439 103.841 107.439 104.119C107.439 104.397 107.372 104.668 107.247 104.894C107.123 105.121 106.946 105.29 106.744 105.379V105.379Z" fill="white"/>
<path d="M89.7206 134.129C138.476 133.233 177.677 102.844 177.279 66.2534C176.881 29.6626 137.035 0.726401 88.2794 1.62247C39.5241 2.51853 0.322608 32.9076 0.720566 69.4983C1.11852 106.089 40.9652 135.025 89.7206 134.129Z" fill="#C0751D"/>
<path opacity="0.7" d="M89.7206 134.129C138.476 133.233 177.677 102.844 177.279 66.2534C176.881 29.6626 137.035 0.726401 88.2794 1.62247C39.5241 2.51853 0.322608 32.9076 0.720566 69.4983C1.11852 106.089 40.9652 135.025 89.7206 134.129Z" fill="#EFB673"/>
<path d="M89.5298 115.872C132.346 115.085 166.796 90.5416 166.475 61.0525C166.155 31.5634 131.185 8.29578 88.3684 9.0827C45.5518 9.86962 11.1022 34.4131 11.4229 63.9022C11.7436 93.3912 46.7133 116.659 89.5298 115.872Z" fill="#C0751D"/>
<path opacity="0.4" d="M89.5298 115.872C132.346 115.085 166.796 90.5416 166.475 61.0525C166.155 31.5634 131.185 8.29578 88.3684 9.0827C45.5518 9.86962 11.1022 34.4131 11.4229 63.9022C11.7436 93.3912 46.7133 116.659 89.5298 115.872Z" fill="white"/>
<path d="M89.4924 112.433C130.057 111.687 162.696 88.435 162.392 60.4977C162.088 32.5604 128.957 10.5171 88.3921 11.2626C47.827 12.0082 15.1888 35.2602 15.4927 63.1975C15.7965 91.1348 48.9273 113.178 89.4924 112.433Z" fill="#C0751D"/>
<path opacity="0.7" d="M89.4924 112.433C130.057 111.687 162.696 88.435 162.392 60.4977C162.088 32.5604 128.957 10.5171 88.3921 11.2626C47.827 12.0082 15.1888 35.2602 15.4927 63.1975C15.7965 91.1348 48.9273 113.178 89.4924 112.433Z" fill="#FCFF74"/>
<path d="M72.8577 39.839C67.0728 44.179 57.6955 44.179 51.9107 39.839C46.1258 35.499 46.1258 28.459 51.9107 24.119C57.6955 19.779 67.0728 19.779 72.8577 24.119C78.6425 28.459 78.6425 35.499 72.8577 39.839Z" fill="#C0751D"/>
<path opacity="0.2" d="M72.8577 39.839C67.0728 44.179 57.6955 44.179 51.9107 39.839C46.1258 35.499 46.1258 28.459 51.9107 24.119C57.6955 19.779 67.0728 19.779 72.8577 24.119C78.6425 28.459 78.6425 35.499 72.8577 39.839Z" fill="#4F3C3C"/>
<path d="M62.3803 41.009C70.563 41.009 77.1963 36.0304 77.1963 29.889C77.1963 23.7476 70.563 18.769 62.3803 18.769C54.1977 18.769 47.5643 23.7476 47.5643 29.889C47.5643 36.0304 54.1977 41.009 62.3803 41.009Z" fill="#C0751D"/>
<path opacity="0.4" d="M62.3803 41.009C70.563 41.009 77.1963 36.0304 77.1963 29.889C77.1963 23.7476 70.563 18.769 62.3803 18.769C54.1977 18.769 47.5643 23.7476 47.5643 29.889C47.5643 36.0304 54.1977 41.009 62.3803 41.009Z" fill="#DD6363"/>
<path d="M55.2877 25.819C56.1544 25.819 56.857 25.2907 56.857 24.639C56.857 23.9873 56.1544 23.459 55.2877 23.459C54.421 23.459 53.7184 23.9873 53.7184 24.639C53.7184 25.2907 54.421 25.819 55.2877 25.819Z" fill="#C0751D"/>
<path opacity="0.7" d="M55.2877 25.819C56.1544 25.819 56.857 25.2907 56.857 24.639C56.857 23.9873 56.1544 23.459 55.2877 23.459C54.421 23.459 53.7184 23.9873 53.7184 24.639C53.7184 25.2907 54.421 25.819 55.2877 25.819Z" fill="white"/>
<path d="M64.765 35.759C64.4232 35.9856 64.0449 36.1037 63.6612 36.1037C63.2774 36.1037 62.8992 35.9856 62.5573 35.759C62.4214 35.7035 62.3026 35.5931 62.2183 35.4438C62.1341 35.2946 62.0886 35.1142 62.0886 34.929C62.0886 34.7439 62.1341 34.5635 62.2183 34.4143C62.3026 34.265 62.4214 34.1545 62.5573 34.099C62.8992 33.8725 63.2774 33.7544 63.6612 33.7544C64.0449 33.7544 64.4232 33.8725 64.765 34.099C64.9009 34.1545 65.0197 34.265 65.104 34.4143C65.1883 34.5635 65.2337 34.7439 65.2337 34.929C65.2337 35.1142 65.1883 35.2946 65.104 35.4438C65.0197 35.5931 64.9009 35.7035 64.765 35.759V35.759Z" fill="#C0751D"/>
<path opacity="0.7" d="M64.765 35.759C64.4232 35.9856 64.0449 36.1037 63.6612 36.1037C63.2774 36.1037 62.8992 35.9856 62.5573 35.759C62.4214 35.7035 62.3026 35.5931 62.2183 35.4438C62.1341 35.2946 62.0886 35.1142 62.0886 34.929C62.0886 34.7439 62.1341 34.5635 62.2183 34.4143C62.3026 34.265 62.4214 34.1545 62.5573 34.099C62.8992 33.8725 63.2774 33.7544 63.6612 33.7544C64.0449 33.7544 64.4232 33.8725 64.765 34.099C64.9009 34.1545 65.0197 34.265 65.104 34.4143C65.1883 34.5635 65.2337 34.7439 65.2337 34.929C65.2337 35.1142 65.1883 35.2946 65.104 35.4438C65.0197 35.5931 64.9009 35.7035 64.765 35.759V35.759Z" fill="white"/>
<path d="M52.5261 29.039C52.3261 29.1724 52.1046 29.242 51.8799 29.242C51.6552 29.242 51.4337 29.1724 51.2337 29.039C51.1449 29.0158 51.0649 28.9533 51.0075 28.8622C50.9501 28.771 50.9187 28.6569 50.9187 28.539C50.9187 28.4212 50.9501 28.307 51.0075 28.2159C51.0649 28.1247 51.1449 28.0623 51.2337 28.039C51.4337 27.9057 51.6552 27.8361 51.8799 27.8361C52.1046 27.8361 52.3261 27.9057 52.5261 28.039C52.6149 28.0623 52.6949 28.1247 52.7523 28.2159C52.8097 28.307 52.8411 28.4212 52.8411 28.539C52.8411 28.6569 52.8097 28.771 52.7523 28.8622C52.6949 28.9533 52.6149 29.0158 52.5261 29.039V29.039Z" fill="#C0751D"/>
<path opacity="0.7" d="M52.5261 29.039C52.3261 29.1724 52.1046 29.242 51.8799 29.242C51.6552 29.242 51.4337 29.1724 51.2337 29.039C51.1449 29.0158 51.0649 28.9533 51.0075 28.8622C50.9501 28.771 50.9187 28.6569 50.9187 28.539C50.9187 28.4212 50.9501 28.307 51.0075 28.2159C51.0649 28.1247 51.1449 28.0623 51.2337 28.039C51.4337 27.9057 51.6552 27.8361 51.8799 27.8361C52.1046 27.8361 52.3261 27.9057 52.5261 28.039C52.6149 28.0623 52.6949 28.1247 52.7523 28.2159C52.8097 28.307 52.8411 28.4212 52.8411 28.539C52.8411 28.6569 52.8097 28.771 52.7523 28.8622C52.6949 28.9533 52.6149 29.0158 52.5261 29.039V29.039Z" fill="white"/>
<path d="M62.3111 31.669C62.1099 31.7971 61.8889 31.8637 61.6649 31.8637C61.4409 31.8637 61.2199 31.7971 61.0187 31.669C60.9299 31.6458 60.8499 31.5833 60.7925 31.4922C60.7351 31.401 60.7037 31.2869 60.7037 31.169C60.7037 31.0512 60.7351 30.937 60.7925 30.8459C60.8499 30.7548 60.9299 30.6923 61.0187 30.669C61.2187 30.5357 61.4402 30.4661 61.6649 30.4661C61.8896 30.4661 62.1111 30.5357 62.3111 30.669C62.3999 30.6923 62.4799 30.7548 62.5373 30.8459C62.5947 30.937 62.6261 31.0512 62.6261 31.169C62.6261 31.2869 62.5947 31.401 62.5373 31.4922C62.4799 31.5833 62.3999 31.6458 62.3111 31.669Z" fill="#C0751D"/>
<path opacity="0.7" d="M62.3111 31.669C62.1099 31.7971 61.8889 31.8637 61.6649 31.8637C61.4409 31.8637 61.2199 31.7971 61.0187 31.669C60.9299 31.6458 60.8499 31.5833 60.7925 31.4922C60.7351 31.401 60.7037 31.2869 60.7037 31.169C60.7037 31.0512 60.7351 30.937 60.7925 30.8459C60.8499 30.7548 60.9299 30.6923 61.0187 30.669C61.2187 30.5357 61.4402 30.4661 61.6649 30.4661C61.8896 30.4661 62.1111 30.5357 62.3111 30.669C62.3999 30.6923 62.4799 30.7548 62.5373 30.8459C62.5947 30.937 62.6261 31.0512 62.6261 31.169C62.6261 31.2869 62.5947 31.401 62.5373 31.4922C62.4799 31.5833 62.3999 31.6458 62.3111 31.669Z" fill="white"/>
<path d="M65.3881 27.9491C65.1895 28.0823 64.9693 28.1519 64.7458 28.1519C64.5223 28.1519 64.302 28.0823 64.1034 27.9491C63.7419 27.6791 63.7419 27.2491 64.1034 26.9491C64.302 26.8158 64.5223 26.7462 64.7458 26.7462C64.9693 26.7462 65.1895 26.8158 65.3881 26.9491C65.7266 27.2491 65.7266 27.6791 65.3881 27.9491Z" fill="#C0751D"/>
<path opacity="0.7" d="M65.3881 27.9491C65.1895 28.0823 64.9693 28.1519 64.7458 28.1519C64.5223 28.1519 64.302 28.0823 64.1034 27.9491C63.7419 27.6791 63.7419 27.2491 64.1034 26.9491C64.302 26.8158 64.5223 26.7462 64.7458 26.7462C64.9693 26.7462 65.1895 26.8158 65.3881 26.9491C65.7266 27.2491 65.7266 27.6791 65.3881 27.9491Z" fill="white"/>
<path d="M57.4955 34.7691C57.2956 34.9024 57.0741 34.972 56.8493 34.972C56.6246 34.972 56.4031 34.9024 56.2032 34.7691C56.1143 34.7458 56.0344 34.6833 55.9769 34.5922C55.9195 34.501 55.8882 34.3869 55.8882 34.2691C55.8882 34.1512 55.9195 34.0371 55.9769 33.9459C56.0344 33.8548 56.1143 33.7923 56.2032 33.7691C56.4043 33.641 56.6253 33.5744 56.8493 33.5744C57.0733 33.5744 57.2943 33.641 57.4955 33.7691C57.8571 34.0691 57.8571 34.5091 57.4955 34.7691Z" fill="#C0751D"/>
<path opacity="0.7" d="M57.4955 34.7691C57.2956 34.9024 57.0741 34.972 56.8493 34.972C56.6246 34.972 56.4031 34.9024 56.2032 34.7691C56.1143 34.7458 56.0344 34.6833 55.9769 34.5922C55.9195 34.501 55.8882 34.3869 55.8882 34.2691C55.8882 34.1512 55.9195 34.0371 55.9769 33.9459C56.0344 33.8548 56.1143 33.7923 56.2032 33.7691C56.4043 33.641 56.6253 33.5744 56.8493 33.5744C57.0733 33.5744 57.2943 33.641 57.4955 33.7691C57.8571 34.0691 57.8571 34.5091 57.4955 34.7691Z" fill="white"/>
<path d="M68.1113 36.789C68.6169 36.789 69.0268 36.4801 69.0268 36.099C69.0268 35.718 68.6169 35.409 68.1113 35.409C67.6058 35.409 67.1959 35.718 67.1959 36.099C67.1959 36.4801 67.6058 36.789 68.1113 36.789Z" fill="#C0751D"/>
<path opacity="0.7" d="M68.1113 36.789C68.6169 36.789 69.0268 36.4801 69.0268 36.099C69.0268 35.718 68.6169 35.409 68.1113 35.409C67.6058 35.409 67.1959 35.718 67.1959 36.099C67.1959 36.4801 67.6058 36.789 68.1113 36.789Z" fill="white"/>
<path d="M71.7499 25.609C71.5488 25.7371 71.3277 25.8037 71.1038 25.8037C70.8798 25.8037 70.6587 25.7371 70.4576 25.609C70.3687 25.5858 70.2888 25.5233 70.2314 25.4322C70.1739 25.341 70.1426 25.2269 70.1426 25.109C70.1426 24.9912 70.1739 24.8771 70.2314 24.7859C70.2888 24.6948 70.3687 24.6323 70.4576 24.609C70.6575 24.4757 70.879 24.4061 71.1038 24.4061C71.3285 24.4061 71.55 24.4757 71.7499 24.609C72.1115 24.909 72.1115 25.379 71.7499 25.609Z" fill="#C0751D"/>
<path opacity="0.7" d="M71.7499 25.609C71.5488 25.7371 71.3277 25.8037 71.1038 25.8037C70.8798 25.8037 70.6587 25.7371 70.4576 25.609C70.3687 25.5858 70.2888 25.5233 70.2314 25.4322C70.1739 25.341 70.1426 25.2269 70.1426 25.109C70.1426 24.9912 70.1739 24.8771 70.2314 24.7859C70.2888 24.6948 70.3687 24.6323 70.4576 24.609C70.6575 24.4757 70.879 24.4061 71.1038 24.4061C71.3285 24.4061 71.55 24.4757 71.7499 24.609C72.1115 24.909 72.1115 25.379 71.7499 25.609Z" fill="white"/>
<path d="M115.483 44.149C123.665 44.149 130.299 39.1704 130.299 33.029C130.299 26.8876 123.665 21.909 115.483 21.909C107.3 21.909 100.667 26.8876 100.667 33.029C100.667 39.1704 107.3 44.149 115.483 44.149Z" fill="#C0751D"/>
<path opacity="0.2" d="M115.483 44.149C123.665 44.149 130.299 39.1704 130.299 33.029C130.299 26.8876 123.665 21.909 115.483 21.909C107.3 21.909 100.667 26.8876 100.667 33.029C100.667 39.1704 107.3 44.149 115.483 44.149Z" fill="#4F3C3C"/>
<path d="M115.483 42.0491C123.665 42.0491 130.299 37.0705 130.299 30.929C130.299 24.7876 123.665 19.809 115.483 19.809C107.3 19.809 100.667 24.7876 100.667 30.929C100.667 37.0705 107.3 42.0491 115.483 42.0491Z" fill="#C0751D"/>
<path opacity="0.4" d="M115.483 42.0491C123.665 42.0491 130.299 37.0705 130.299 30.929C130.299 24.7876 123.665 19.809 115.483 19.809C107.3 19.809 100.667 24.7876 100.667 30.929C100.667 37.0705 107.3 42.0491 115.483 42.0491Z" fill="#DD6363"/>
<path d="M109.49 26.519C109.146 26.7411 108.767 26.8566 108.382 26.8566C107.998 26.8566 107.619 26.7411 107.275 26.519C107.14 26.4607 107.022 26.3487 106.939 26.1988C106.856 26.0489 106.811 25.8688 106.811 25.684C106.811 25.4993 106.856 25.3192 106.939 25.1693C107.022 25.0194 107.14 24.9074 107.275 24.849C107.619 24.627 107.998 24.5115 108.382 24.5115C108.767 24.5115 109.146 24.627 109.49 24.849C109.625 24.9074 109.742 25.0194 109.825 25.1693C109.908 25.3192 109.953 25.4993 109.953 25.684C109.953 25.8688 109.908 26.0489 109.825 26.1988C109.742 26.3487 109.625 26.4607 109.49 26.519V26.519Z" fill="#C0751D"/>
<path opacity="0.7" d="M109.49 26.519C109.146 26.7411 108.767 26.8566 108.382 26.8566C107.998 26.8566 107.619 26.7411 107.275 26.519C107.14 26.4607 107.022 26.3487 106.939 26.1988C106.856 26.0489 106.811 25.8688 106.811 25.684C106.811 25.4993 106.856 25.3192 106.939 25.1693C107.022 25.0194 107.14 24.9074 107.275 24.849C107.619 24.627 107.998 24.5115 108.382 24.5115C108.767 24.5115 109.146 24.627 109.49 24.849C109.625 24.9074 109.742 25.0194 109.825 25.1693C109.908 25.3192 109.953 25.4993 109.953 25.684C109.953 25.8688 109.908 26.0489 109.825 26.1988C109.742 26.3487 109.625 26.4607 109.49 26.519V26.519Z" fill="white"/>
<path d="M117.867 36.809C117.524 37.0356 117.144 37.1538 116.759 37.1538C116.375 37.1538 115.995 37.0356 115.652 36.809C115.517 36.7507 115.4 36.6387 115.316 36.4888C115.233 36.3389 115.189 36.1588 115.189 35.974C115.189 35.7893 115.233 35.6092 115.316 35.4593C115.4 35.3094 115.517 35.1974 115.652 35.1391C115.996 34.917 116.375 34.8015 116.759 34.8015C117.144 34.8015 117.523 34.917 117.867 35.1391C118.002 35.1974 118.119 35.3094 118.203 35.4593C118.286 35.6092 118.33 35.7893 118.33 35.974C118.33 36.1588 118.286 36.3389 118.203 36.4888C118.119 36.6387 118.002 36.7507 117.867 36.809V36.809Z" fill="#C0751D"/>
<path opacity="0.7" d="M117.867 36.809C117.524 37.0356 117.144 37.1538 116.759 37.1538C116.375 37.1538 115.995 37.0356 115.652 36.809C115.517 36.7507 115.4 36.6387 115.316 36.4888C115.233 36.3389 115.189 36.1588 115.189 35.974C115.189 35.7893 115.233 35.6092 115.316 35.4593C115.4 35.3094 115.517 35.1974 115.652 35.1391C115.996 34.917 116.375 34.8015 116.759 34.8015C117.144 34.8015 117.523 34.917 117.867 35.1391C118.002 35.1974 118.119 35.3094 118.203 35.4593C118.286 35.6092 118.33 35.7893 118.33 35.974C118.33 36.1588 118.286 36.3389 118.203 36.4888C118.119 36.6387 118.002 36.7507 117.867 36.809V36.809Z" fill="white"/>
<path d="M105.621 30.0891C105.419 30.2171 105.198 30.2837 104.974 30.2837C104.75 30.2837 104.529 30.2171 104.328 30.0891C104.239 30.0658 104.159 30.0033 104.102 29.9122C104.045 29.821 104.013 29.7069 104.013 29.5891C104.013 29.4712 104.045 29.357 104.102 29.2659C104.159 29.1748 104.239 29.1123 104.328 29.0891C104.528 28.9557 104.75 28.8861 104.974 28.8861C105.199 28.8861 105.421 28.9557 105.621 29.0891C105.982 29.3791 105.982 29.8191 105.621 30.0891Z" fill="#C0751D"/>
<path opacity="0.7" d="M105.621 30.0891C105.419 30.2171 105.198 30.2837 104.974 30.2837C104.75 30.2837 104.529 30.2171 104.328 30.0891C104.239 30.0658 104.159 30.0033 104.102 29.9122C104.045 29.821 104.013 29.7069 104.013 29.5891C104.013 29.4712 104.045 29.357 104.102 29.2659C104.159 29.1748 104.239 29.1123 104.328 29.0891C104.528 28.9557 104.75 28.8861 104.974 28.8861C105.199 28.8861 105.421 28.9557 105.621 29.0891C105.982 29.3791 105.982 29.8191 105.621 30.0891Z" fill="white"/>
<path d="M115.436 32.709C115.238 32.8423 115.018 32.9119 114.794 32.9119C114.571 32.9119 114.35 32.8423 114.152 32.709C113.79 32.449 113.79 32.009 114.152 31.709C114.352 31.5811 114.571 31.5146 114.794 31.5146C115.017 31.5146 115.237 31.5811 115.436 31.709C115.798 32.009 115.798 32.449 115.436 32.709Z" fill="#C0751D"/>
<path opacity="0.7" d="M115.436 32.709C115.238 32.8423 115.018 32.9119 114.794 32.9119C114.571 32.9119 114.35 32.8423 114.152 32.709C113.79 32.449 113.79 32.009 114.152 31.709C114.352 31.5811 114.571 31.5146 114.794 31.5146C115.017 31.5146 115.237 31.5811 115.436 31.709C115.798 32.009 115.798 32.449 115.436 32.709Z" fill="white"/>
<path d="M118.467 28.999C118.266 29.1271 118.045 29.1937 117.821 29.1937C117.597 29.1937 117.376 29.1271 117.175 28.999C117.086 28.9758 117.006 28.9133 116.949 28.8222C116.891 28.731 116.86 28.6169 116.86 28.499C116.86 28.3812 116.891 28.2671 116.949 28.1759C117.006 28.0848 117.086 28.0223 117.175 27.999C117.375 27.8657 117.596 27.7961 117.821 27.7961C118.046 27.7961 118.267 27.8657 118.467 27.999C118.556 28.0223 118.636 28.0848 118.693 28.1759C118.751 28.2671 118.782 28.3812 118.782 28.499C118.782 28.6169 118.751 28.731 118.693 28.8222C118.636 28.9133 118.556 28.9758 118.467 28.999V28.999Z" fill="#C0751D"/>
<path opacity="0.7" d="M118.467 28.999C118.266 29.1271 118.045 29.1937 117.821 29.1937C117.597 29.1937 117.376 29.1271 117.175 28.999C117.086 28.9758 117.006 28.9133 116.949 28.8222C116.891 28.731 116.86 28.6169 116.86 28.499C116.86 28.3812 116.891 28.2671 116.949 28.1759C117.006 28.0848 117.086 28.0223 117.175 27.999C117.375 27.8657 117.596 27.7961 117.821 27.7961C118.046 27.7961 118.267 27.8657 118.467 27.999C118.556 28.0223 118.636 28.0848 118.693 28.1759C118.751 28.2671 118.782 28.3812 118.782 28.499C118.782 28.6169 118.751 28.731 118.693 28.8222C118.636 28.9133 118.556 28.9758 118.467 28.999V28.999Z" fill="white"/>
<path d="M110.598 35.819C110.398 35.9524 110.176 36.022 109.952 36.022C109.727 36.022 109.505 35.9524 109.305 35.819C109.216 35.7958 109.137 35.7333 109.079 35.6422C109.022 35.551 108.99 35.4369 108.99 35.319C108.99 35.2012 109.022 35.087 109.079 34.9959C109.137 34.9047 109.216 34.8423 109.305 34.819C109.505 34.6857 109.727 34.6161 109.952 34.6161C110.176 34.6161 110.398 34.6857 110.598 34.819C110.687 34.8423 110.766 34.9047 110.824 34.9959C110.881 35.087 110.913 35.2012 110.913 35.319C110.913 35.4369 110.881 35.551 110.824 35.6422C110.766 35.7333 110.687 35.7958 110.598 35.819V35.819Z" fill="#C0751D"/>
<path opacity="0.7" d="M110.598 35.819C110.398 35.9524 110.176 36.022 109.952 36.022C109.727 36.022 109.505 35.9524 109.305 35.819C109.216 35.7958 109.137 35.7333 109.079 35.6422C109.022 35.551 108.99 35.4369 108.99 35.319C108.99 35.2012 109.022 35.087 109.079 34.9959C109.137 34.9047 109.216 34.8423 109.305 34.819C109.505 34.6857 109.727 34.6161 109.952 34.6161C110.176 34.6161 110.398 34.6857 110.598 34.819C110.687 34.8423 110.766 34.9047 110.824 34.9959C110.881 35.087 110.913 35.2012 110.913 35.319C110.913 35.4369 110.881 35.551 110.824 35.6422C110.766 35.7333 110.687 35.7958 110.598 35.819V35.819Z" fill="white"/>
<path d="M121.852 37.6391C121.651 37.7671 121.43 37.8337 121.206 37.8337C120.982 37.8337 120.761 37.7671 120.56 37.6391C120.471 37.6158 120.391 37.5534 120.333 37.4622C120.276 37.3711 120.245 37.2569 120.245 37.1391C120.245 37.0212 120.276 36.9071 120.333 36.8159C120.391 36.7248 120.471 36.6623 120.56 36.6391C120.76 36.5057 120.981 36.4361 121.206 36.4361C121.431 36.4361 121.652 36.5057 121.852 36.6391C122.214 36.9291 122.214 37.3791 121.852 37.6391Z" fill="#C0751D"/>
<path opacity="0.7" d="M121.852 37.6391C121.651 37.7671 121.43 37.8337 121.206 37.8337C120.982 37.8337 120.761 37.7671 120.56 37.6391C120.471 37.6158 120.391 37.5534 120.333 37.4622C120.276 37.3711 120.245 37.2569 120.245 37.1391C120.245 37.0212 120.276 36.9071 120.333 36.8159C120.391 36.7248 120.471 36.6623 120.56 36.6391C120.76 36.5057 120.981 36.4361 121.206 36.4361C121.431 36.4361 121.652 36.5057 121.852 36.6391C122.214 36.9291 122.214 37.3791 121.852 37.6391Z" fill="white"/>
<path d="M124.852 26.649C124.652 26.7824 124.431 26.852 124.206 26.852C123.981 26.852 123.76 26.7824 123.56 26.649C123.471 26.6258 123.391 26.5633 123.334 26.4722C123.276 26.381 123.245 26.2669 123.245 26.149C123.245 26.0312 123.276 25.917 123.334 25.8259C123.391 25.7347 123.471 25.6723 123.56 25.649C123.761 25.521 123.982 25.4544 124.206 25.4544C124.43 25.4544 124.651 25.521 124.852 25.649C124.941 25.6723 125.021 25.7347 125.078 25.8259C125.136 25.917 125.167 26.0312 125.167 26.149C125.167 26.2669 125.136 26.381 125.078 26.4722C125.021 26.5633 124.941 26.6258 124.852 26.649V26.649Z" fill="#C0751D"/>
<path opacity="0.7" d="M124.852 26.649C124.652 26.7824 124.431 26.852 124.206 26.852C123.981 26.852 123.76 26.7824 123.56 26.649C123.471 26.6258 123.391 26.5633 123.334 26.4722C123.276 26.381 123.245 26.2669 123.245 26.149C123.245 26.0312 123.276 25.917 123.334 25.8259C123.391 25.7347 123.471 25.6723 123.56 25.649C123.761 25.521 123.982 25.4544 124.206 25.4544C124.43 25.4544 124.651 25.521 124.852 25.649C124.941 25.6723 125.021 25.7347 125.078 25.8259C125.136 25.917 125.167 26.0312 125.167 26.149C125.167 26.2669 125.136 26.381 125.078 26.4722C125.021 26.5633 124.941 26.6258 124.852 26.649V26.649Z" fill="white"/>
<path d="M88.9352 69.129C97.1179 69.129 103.751 64.1505 103.751 58.009C103.751 51.8676 97.1179 46.8891 88.9352 46.8891C80.7526 46.8891 74.1193 51.8676 74.1193 58.009C74.1193 64.1505 80.7526 69.129 88.9352 69.129Z" fill="#C0751D"/>
<path opacity="0.2" d="M88.9352 69.129C97.1179 69.129 103.751 64.1505 103.751 58.009C103.751 51.8676 97.1179 46.8891 88.9352 46.8891C80.7526 46.8891 74.1193 51.8676 74.1193 58.009C74.1193 64.1505 80.7526 69.129 88.9352 69.129Z" fill="#4F3C3C"/>
<path d="M88.9352 67.029C97.1179 67.029 103.751 62.0504 103.751 55.909C103.751 49.7676 97.1179 44.789 88.9352 44.789C80.7526 44.789 74.1193 49.7676 74.1193 55.909C74.1193 62.0504 80.7526 67.029 88.9352 67.029Z" fill="#C0751D"/>
<path opacity="0.4" d="M88.9352 67.029C97.1179 67.029 103.751 62.0504 103.751 55.909C103.751 49.7676 97.1179 44.789 88.9352 44.789C80.7526 44.789 74.1193 49.7676 74.1193 55.909C74.1193 62.0504 80.7526 67.029 88.9352 67.029Z" fill="#DD6363"/>
<path d="M82.9427 51.499C82.5995 51.7257 82.22 51.8438 81.835 51.8438C81.45 51.8438 81.0705 51.7257 80.7272 51.499C80.5951 51.4385 80.4806 51.3262 80.3997 51.1775C80.3187 51.0288 80.2752 50.8512 80.2752 50.6691C80.2752 50.4869 80.3187 50.3092 80.3997 50.1606C80.4806 50.0119 80.5951 49.8996 80.7272 49.839C81.0705 49.6124 81.45 49.4943 81.835 49.4943C82.22 49.4943 82.5995 49.6124 82.9427 49.839C83.0749 49.8996 83.1893 50.0119 83.2703 50.1606C83.3512 50.3092 83.3947 50.4869 83.3947 50.6691C83.3947 50.8512 83.3512 51.0288 83.2703 51.1775C83.1893 51.3262 83.0749 51.4385 82.9427 51.499V51.499Z" fill="#C0751D"/>
<path opacity="0.7" d="M82.9427 51.499C82.5995 51.7257 82.22 51.8438 81.835 51.8438C81.45 51.8438 81.0705 51.7257 80.7272 51.499C80.5951 51.4385 80.4806 51.3262 80.3997 51.1775C80.3187 51.0288 80.2752 50.8512 80.2752 50.6691C80.2752 50.4869 80.3187 50.3092 80.3997 50.1606C80.4806 50.0119 80.5951 49.8996 80.7272 49.839C81.0705 49.6124 81.45 49.4943 81.835 49.4943C82.22 49.4943 82.5995 49.6124 82.9427 49.839C83.0749 49.8996 83.1893 50.0119 83.2703 50.1606C83.3512 50.3092 83.3947 50.4869 83.3947 50.6691C83.3947 50.8512 83.3512 51.0288 83.2703 51.1775C83.1893 51.3262 83.0749 51.4385 82.9427 51.499V51.499Z" fill="white"/>
<path d="M91.32 61.789C90.9767 62.0157 90.5972 62.1338 90.2122 62.1338C89.8273 62.1338 89.4477 62.0157 89.1045 61.789C88.9686 61.7335 88.8499 61.6231 88.7656 61.4738C88.6813 61.3246 88.6358 61.1442 88.6358 60.959C88.6358 60.7739 88.6813 60.5935 88.7656 60.4443C88.8499 60.295 88.9686 60.1845 89.1045 60.129C89.4477 59.9024 89.8273 59.7843 90.2122 59.7843C90.5972 59.7843 90.9767 59.9024 91.32 60.129C91.4521 60.1896 91.5666 60.3019 91.6476 60.4506C91.7285 60.5992 91.772 60.7769 91.772 60.959C91.772 61.1412 91.7285 61.3189 91.6476 61.4675C91.5666 61.6162 91.4521 61.7285 91.32 61.789Z" fill="#C0751D"/>
<path opacity="0.7" d="M91.32 61.789C90.9767 62.0157 90.5972 62.1338 90.2122 62.1338C89.8273 62.1338 89.4477 62.0157 89.1045 61.789C88.9686 61.7335 88.8499 61.6231 88.7656 61.4738C88.6813 61.3246 88.6358 61.1442 88.6358 60.959C88.6358 60.7739 88.6813 60.5935 88.7656 60.4443C88.8499 60.295 88.9686 60.1845 89.1045 60.129C89.4477 59.9024 89.8273 59.7843 90.2122 59.7843C90.5972 59.7843 90.9767 59.9024 91.32 60.129C91.4521 60.1896 91.5666 60.3019 91.6476 60.4506C91.7285 60.5992 91.772 60.7769 91.772 60.959C91.772 61.1412 91.7285 61.3189 91.6476 61.4675C91.5666 61.6162 91.4521 61.7285 91.32 61.789Z" fill="white"/>
<path d="M79.0733 55.069C78.8734 55.2024 78.6519 55.272 78.4271 55.272C78.2024 55.272 77.9809 55.2024 77.7809 55.069C77.6921 55.0458 77.6122 54.9833 77.5548 54.8922C77.4973 54.801 77.4659 54.6869 77.4659 54.569C77.4659 54.4512 77.4973 54.337 77.5548 54.2459C77.6122 54.1547 77.6921 54.0923 77.7809 54.069C77.9809 53.9357 78.2024 53.8661 78.4271 53.8661C78.6519 53.8661 78.8734 53.9357 79.0733 54.069C79.1622 54.0923 79.2421 54.1547 79.2995 54.2459C79.357 54.337 79.3883 54.4512 79.3883 54.569C79.3883 54.6869 79.357 54.801 79.2995 54.8922C79.2421 54.9833 79.1622 55.0458 79.0733 55.069V55.069Z" fill="#C0751D"/>
<path opacity="0.7" d="M79.0733 55.069C78.8734 55.2024 78.6519 55.272 78.4271 55.272C78.2024 55.272 77.9809 55.2024 77.7809 55.069C77.6921 55.0458 77.6122 54.9833 77.5548 54.8922C77.4973 54.801 77.4659 54.6869 77.4659 54.569C77.4659 54.4512 77.4973 54.337 77.5548 54.2459C77.6122 54.1547 77.6921 54.0923 77.7809 54.069C77.9809 53.9357 78.2024 53.8661 78.4271 53.8661C78.6519 53.8661 78.8734 53.9357 79.0733 54.069C79.1622 54.0923 79.2421 54.1547 79.2995 54.2459C79.357 54.337 79.3883 54.4512 79.3883 54.569C79.3883 54.6869 79.357 54.801 79.2995 54.8922C79.2421 54.9833 79.1622 55.0458 79.0733 55.069V55.069Z" fill="white"/>
<path d="M88.8891 57.689C88.6891 57.8224 88.4676 57.892 88.2429 57.892C88.0182 57.892 87.7967 57.8224 87.5967 57.689C87.5079 57.6658 87.428 57.6033 87.3705 57.5122C87.3131 57.421 87.2817 57.3069 87.2817 57.189C87.2817 57.0712 87.3131 56.957 87.3705 56.8659C87.428 56.7747 87.5079 56.7123 87.5967 56.689C87.7967 56.5557 88.0182 56.4861 88.2429 56.4861C88.4676 56.4861 88.6891 56.5557 88.8891 56.689C88.9779 56.7123 89.0579 56.7747 89.1153 56.8659C89.1727 56.957 89.2041 57.0712 89.2041 57.189C89.2041 57.3069 89.1727 57.421 89.1153 57.5122C89.0579 57.6033 88.9779 57.6658 88.8891 57.689V57.689Z" fill="#C0751D"/>
<path opacity="0.7" d="M88.8891 57.689C88.6891 57.8224 88.4676 57.892 88.2429 57.892C88.0182 57.892 87.7967 57.8224 87.5967 57.689C87.5079 57.6658 87.428 57.6033 87.3705 57.5122C87.3131 57.421 87.2817 57.3069 87.2817 57.189C87.2817 57.0712 87.3131 56.957 87.3705 56.8659C87.428 56.7747 87.5079 56.7123 87.5967 56.689C87.7967 56.5557 88.0182 56.4861 88.2429 56.4861C88.4676 56.4861 88.6891 56.5557 88.8891 56.689C88.9779 56.7123 89.0579 56.7747 89.1153 56.8659C89.1727 56.957 89.2041 57.0712 89.2041 57.189C89.2041 57.3069 89.1727 57.421 89.1153 57.5122C89.0579 57.6033 88.9779 57.6658 88.8891 57.689V57.689Z" fill="white"/>
<path d="M91.92 53.979C91.72 54.1124 91.4986 54.182 91.2738 54.182C91.0491 54.182 90.8276 54.1124 90.6276 53.979C90.2661 53.709 90.2661 53.279 90.6276 52.979C90.8276 52.8457 91.0491 52.7761 91.2738 52.7761C91.4986 52.7761 91.72 52.8457 91.92 52.979C92.0089 53.0023 92.0888 53.0648 92.1462 53.1559C92.2036 53.247 92.235 53.3612 92.235 53.479C92.235 53.5969 92.2036 53.7111 92.1462 53.8022C92.0888 53.8933 92.0089 53.9558 91.92 53.979Z" fill="#C0751D"/>
<path opacity="0.7" d="M91.92 53.979C91.72 54.1124 91.4986 54.182 91.2738 54.182C91.0491 54.182 90.8276 54.1124 90.6276 53.979C90.2661 53.709 90.2661 53.279 90.6276 52.979C90.8276 52.8457 91.0491 52.7761 91.2738 52.7761C91.4986 52.7761 91.72 52.8457 91.92 52.979C92.0089 53.0023 92.0888 53.0648 92.1462 53.1559C92.2036 53.247 92.235 53.3612 92.235 53.479C92.235 53.5969 92.2036 53.7111 92.1462 53.8022C92.0888 53.8933 92.0089 53.9558 91.92 53.979Z" fill="white"/>
<path d="M84.0505 60.7991C83.8505 60.9324 83.629 61.002 83.4043 61.002C83.1795 61.002 82.958 60.9324 82.7581 60.7991C82.3965 60.5291 82.3965 60.0991 82.7581 59.7991C82.958 59.6657 83.1795 59.5961 83.4043 59.5961C83.629 59.5961 83.8505 59.6657 84.0505 59.7991C84.1393 59.8223 84.2192 59.8848 84.2766 59.9759C84.3341 60.0671 84.3655 60.1812 84.3655 60.2991C84.3655 60.4169 84.3341 60.531 84.2766 60.6222C84.2192 60.7133 84.1393 60.7758 84.0505 60.7991V60.7991Z" fill="#C0751D"/>
<path opacity="0.7" d="M84.0505 60.7991C83.8505 60.9324 83.629 61.002 83.4043 61.002C83.1795 61.002 82.958 60.9324 82.7581 60.7991C82.3965 60.5291 82.3965 60.0991 82.7581 59.7991C82.958 59.6657 83.1795 59.5961 83.4043 59.5961C83.629 59.5961 83.8505 59.6657 84.0505 59.7991C84.1393 59.8223 84.2192 59.8848 84.2766 59.9759C84.3341 60.0671 84.3655 60.1812 84.3655 60.2991C84.3655 60.4169 84.3341 60.531 84.2766 60.6222C84.2192 60.7133 84.1393 60.7758 84.0505 60.7991V60.7991Z" fill="white"/>
<path d="M95.3048 62.619C95.1036 62.7471 94.8826 62.8137 94.6586 62.8137C94.4346 62.8137 94.2136 62.7471 94.0124 62.619C93.9235 62.5958 93.8436 62.5333 93.7862 62.4422C93.7287 62.351 93.6974 62.2368 93.6974 62.119C93.6974 62.0012 93.7287 61.887 93.7862 61.7959C93.8436 61.7047 93.9235 61.6423 94.0124 61.619C94.2123 61.4857 94.4338 61.4161 94.6586 61.4161C94.8833 61.4161 95.1048 61.4857 95.3048 61.619C95.3936 61.6423 95.4735 61.7047 95.531 61.7959C95.5884 61.887 95.6198 62.0012 95.6198 62.119C95.6198 62.2368 95.5884 62.351 95.531 62.4422C95.4735 62.5333 95.3936 62.5958 95.3048 62.619V62.619Z" fill="#C0751D"/>
<path opacity="0.7" d="M95.3048 62.619C95.1036 62.7471 94.8826 62.8137 94.6586 62.8137C94.4346 62.8137 94.2136 62.7471 94.0124 62.619C93.9235 62.5958 93.8436 62.5333 93.7862 62.4422C93.7287 62.351 93.6974 62.2368 93.6974 62.119C93.6974 62.0012 93.7287 61.887 93.7862 61.7959C93.8436 61.7047 93.9235 61.6423 94.0124 61.619C94.2123 61.4857 94.4338 61.4161 94.6586 61.4161C94.8833 61.4161 95.1048 61.4857 95.3048 61.619C95.3936 61.6423 95.4735 61.7047 95.531 61.7959C95.5884 61.887 95.6198 62.0012 95.6198 62.119C95.6198 62.2368 95.5884 62.351 95.531 62.4422C95.4735 62.5333 95.3936 62.5958 95.3048 62.619V62.619Z" fill="white"/>
<path d="M98.2972 51.629C98.0986 51.7623 97.8783 51.8319 97.6549 51.8319C97.4314 51.8319 97.2111 51.7623 97.0125 51.629C96.9105 51.629 96.8127 51.5764 96.7405 51.4826C96.6684 51.3888 96.6279 51.2617 96.6279 51.129C96.6279 50.9964 96.6684 50.8693 96.7405 50.7755C96.8127 50.6817 96.9105 50.629 97.0125 50.629C97.2111 50.4957 97.4314 50.4262 97.6549 50.4262C97.8783 50.4262 98.0986 50.4957 98.2972 50.629C98.3992 50.629 98.497 50.6817 98.5691 50.7755C98.6413 50.8693 98.6818 50.9964 98.6818 51.129C98.6818 51.2617 98.6413 51.3888 98.5691 51.4826C98.497 51.5764 98.3992 51.629 98.2972 51.629Z" fill="#C0751D"/>
<path opacity="0.7" d="M98.2972 51.629C98.0986 51.7623 97.8783 51.8319 97.6549 51.8319C97.4314 51.8319 97.2111 51.7623 97.0125 51.629C96.9105 51.629 96.8127 51.5764 96.7405 51.4826C96.6684 51.3888 96.6279 51.2617 96.6279 51.129C96.6279 50.9964 96.6684 50.8693 96.7405 50.7755C96.8127 50.6817 96.9105 50.629 97.0125 50.629C97.2111 50.4957 97.4314 50.4262 97.6549 50.4262C97.8783 50.4262 98.0986 50.4957 98.2972 50.629C98.3992 50.629 98.497 50.6817 98.5691 50.7755C98.6413 50.8693 98.6818 50.9964 98.6818 51.129C98.6818 51.2617 98.6413 51.3888 98.5691 51.4826C98.497 51.5764 98.3992 51.629 98.2972 51.629Z" fill="white"/>
<path d="M88.9352 104.939C97.1179 104.939 103.751 99.9605 103.751 93.819C103.751 87.6776 97.1179 82.6991 88.9352 82.6991C80.7526 82.6991 74.1193 87.6776 74.1193 93.819C74.1193 99.9605 80.7526 104.939 88.9352 104.939Z" fill="#C0751D"/>
<path opacity="0.2" d="M88.9352 104.939C97.1179 104.939 103.751 99.9605 103.751 93.819C103.751 87.6776 97.1179 82.6991 88.9352 82.6991C80.7526 82.6991 74.1193 87.6776 74.1193 93.819C74.1193 99.9605 80.7526 104.939 88.9352 104.939Z" fill="#4F3C3C"/>
<path d="M99.4049 99.589C93.6201 103.929 84.2428 103.929 78.4579 99.589C72.673 95.249 72.673 88.209 78.4579 83.869C84.2428 79.529 93.6201 79.529 99.4049 83.869C105.19 88.209 105.19 95.249 99.4049 99.589Z" fill="#C0751D"/>
<path opacity="0.4" d="M99.4049 99.589C93.6201 103.929 84.2428 103.929 78.4579 99.589C72.673 95.249 72.673 88.209 78.4579 83.869C84.2428 79.529 93.6201 79.529 99.4049 83.869C105.19 88.209 105.19 95.249 99.4049 99.589Z" fill="#DD6363"/>
<path d="M82.9427 87.319C82.599 87.5434 82.2196 87.6602 81.835 87.6602C81.4503 87.6602 81.071 87.5434 80.7272 87.319C80.5951 87.2585 80.4806 87.1462 80.3997 86.9975C80.3187 86.8488 80.2752 86.6712 80.2752 86.489C80.2752 86.3069 80.3187 86.1292 80.3997 85.9806C80.4806 85.8319 80.5951 85.7196 80.7272 85.659C81.0705 85.4324 81.45 85.3143 81.835 85.3143C82.22 85.3143 82.5995 85.4324 82.9427 85.659C83.0749 85.7196 83.1893 85.8319 83.2703 85.9806C83.3512 86.1292 83.3947 86.3069 83.3947 86.489C83.3947 86.6712 83.3512 86.8488 83.2703 86.9975C83.1893 87.1462 83.0749 87.2585 82.9427 87.319Z" fill="#C0751D"/>
<path opacity="0.7" d="M82.9427 87.319C82.599 87.5434 82.2196 87.6602 81.835 87.6602C81.4503 87.6602 81.071 87.5434 80.7272 87.319C80.5951 87.2585 80.4806 87.1462 80.3997 86.9975C80.3187 86.8488 80.2752 86.6712 80.2752 86.489C80.2752 86.3069 80.3187 86.1292 80.3997 85.9806C80.4806 85.8319 80.5951 85.7196 80.7272 85.659C81.0705 85.4324 81.45 85.3143 81.835 85.3143C82.22 85.3143 82.5995 85.4324 82.9427 85.659C83.0749 85.7196 83.1893 85.8319 83.2703 85.9806C83.3512 86.1292 83.3947 86.3069 83.3947 86.489C83.3947 86.6712 83.3512 86.8488 83.2703 86.9975C83.1893 87.1462 83.0749 87.2585 82.9427 87.319Z" fill="white"/>
<path d="M91.32 97.6091C90.9757 97.8311 90.5966 97.9466 90.2122 97.9466C89.8279 97.9466 89.4488 97.8311 89.1045 97.6091C88.9696 97.5507 88.8523 97.4387 88.7691 97.2888C88.686 97.1389 88.6413 96.9588 88.6413 96.774C88.6413 96.5893 88.686 96.4092 88.7691 96.2593C88.8523 96.1094 88.9696 95.9974 89.1045 95.939C89.4477 95.7124 89.8273 95.5943 90.2122 95.5943C90.5972 95.5943 90.9767 95.7124 91.32 95.939C91.4549 95.9974 91.5722 96.1094 91.6553 96.2593C91.7385 96.4092 91.7832 96.5893 91.7832 96.774C91.7832 96.9588 91.7385 97.1389 91.6553 97.2888C91.5722 97.4387 91.4549 97.5507 91.32 97.6091V97.6091Z" fill="#C0751D"/>
<path opacity="0.7" d="M91.32 97.6091C90.9757 97.8311 90.5966 97.9466 90.2122 97.9466C89.8279 97.9466 89.4488 97.8311 89.1045 97.6091C88.9696 97.5507 88.8523 97.4387 88.7691 97.2888C88.686 97.1389 88.6413 96.9588 88.6413 96.774C88.6413 96.5893 88.686 96.4092 88.7691 96.2593C88.8523 96.1094 88.9696 95.9974 89.1045 95.939C89.4477 95.7124 89.8273 95.5943 90.2122 95.5943C90.5972 95.5943 90.9767 95.7124 91.32 95.939C91.4549 95.9974 91.5722 96.1094 91.6553 96.2593C91.7385 96.4092 91.7832 96.5893 91.7832 96.774C91.7832 96.9588 91.7385 97.1389 91.6553 97.2888C91.5722 97.4387 91.4549 97.5507 91.32 97.6091V97.6091Z" fill="white"/>
<path d="M79.0733 90.8891C78.8722 91.0171 78.6511 91.0837 78.4271 91.0837C78.2032 91.0837 77.9821 91.0171 77.7809 90.8891C77.6921 90.8658 77.6122 90.8034 77.5548 90.7122C77.4973 90.6211 77.4659 90.5069 77.4659 90.3891C77.4659 90.2712 77.4973 90.1571 77.5548 90.0659C77.6122 89.9748 77.6921 89.9123 77.7809 89.8891C77.9809 89.7557 78.2024 89.6861 78.4271 89.6861C78.6519 89.6861 78.8734 89.7557 79.0733 89.8891C79.1622 89.9123 79.2421 89.9748 79.2995 90.0659C79.357 90.1571 79.3883 90.2712 79.3883 90.3891C79.3883 90.5069 79.357 90.6211 79.2995 90.7122C79.2421 90.8034 79.1622 90.8658 79.0733 90.8891Z" fill="#C0751D"/>
<path opacity="0.7" d="M79.0733 90.8891C78.8722 91.0171 78.6511 91.0837 78.4271 91.0837C78.2032 91.0837 77.9821 91.0171 77.7809 90.8891C77.6921 90.8658 77.6122 90.8034 77.5548 90.7122C77.4973 90.6211 77.4659 90.5069 77.4659 90.3891C77.4659 90.2712 77.4973 90.1571 77.5548 90.0659C77.6122 89.9748 77.6921 89.9123 77.7809 89.8891C77.9809 89.7557 78.2024 89.6861 78.4271 89.6861C78.6519 89.6861 78.8734 89.7557 79.0733 89.8891C79.1622 89.9123 79.2421 89.9748 79.2995 90.0659C79.357 90.1571 79.3883 90.2712 79.3883 90.3891C79.3883 90.5069 79.357 90.6211 79.2995 90.7122C79.2421 90.8034 79.1622 90.8658 79.0733 90.8891Z" fill="white"/>
<path d="M88.8891 93.509C88.6891 93.6424 88.4676 93.712 88.2429 93.712C88.0182 93.712 87.7967 93.6424 87.5967 93.509C87.5079 93.4858 87.428 93.4233 87.3705 93.3322C87.3131 93.2411 87.2817 93.1269 87.2817 93.009C87.2817 92.8912 87.3131 92.777 87.3705 92.6859C87.428 92.5948 87.5079 92.5323 87.5967 92.509C87.7979 92.381 88.0189 92.3144 88.2429 92.3144C88.4669 92.3144 88.6879 92.381 88.8891 92.509C88.9779 92.5323 89.0579 92.5948 89.1153 92.6859C89.1727 92.777 89.2041 92.8912 89.2041 93.009C89.2041 93.1269 89.1727 93.2411 89.1153 93.3322C89.0579 93.4233 88.9779 93.4858 88.8891 93.509V93.509Z" fill="#C0751D"/>
<path opacity="0.7" d="M88.8891 93.509C88.6891 93.6424 88.4676 93.712 88.2429 93.712C88.0182 93.712 87.7967 93.6424 87.5967 93.509C87.5079 93.4858 87.428 93.4233 87.3705 93.3322C87.3131 93.2411 87.2817 93.1269 87.2817 93.009C87.2817 92.8912 87.3131 92.777 87.3705 92.6859C87.428 92.5948 87.5079 92.5323 87.5967 92.509C87.7979 92.381 88.0189 92.3144 88.2429 92.3144C88.4669 92.3144 88.6879 92.381 88.8891 92.509C88.9779 92.5323 89.0579 92.5948 89.1153 92.6859C89.1727 92.777 89.2041 92.8912 89.2041 93.009C89.2041 93.1269 89.1727 93.2411 89.1153 93.3322C89.0579 93.4233 88.9779 93.4858 88.8891 93.509V93.509Z" fill="white"/>
<path d="M91.92 89.7991C91.7188 89.9271 91.4978 89.9937 91.2738 89.9937C91.0498 89.9937 90.8288 89.9271 90.6276 89.7991C90.2661 89.5291 90.2661 89.0891 90.6276 88.7991C90.8276 88.6657 91.0491 88.5961 91.2738 88.5961C91.4986 88.5961 91.72 88.6657 91.92 88.7991C92.0089 88.8223 92.0888 88.8848 92.1462 88.9759C92.2036 89.0671 92.235 89.1812 92.235 89.2991C92.235 89.4169 92.2036 89.531 92.1462 89.6222C92.0888 89.7133 92.0089 89.7758 91.92 89.7991Z" fill="#C0751D"/>
<path opacity="0.7" d="M91.92 89.7991C91.7188 89.9271 91.4978 89.9937 91.2738 89.9937C91.0498 89.9937 90.8288 89.9271 90.6276 89.7991C90.2661 89.5291 90.2661 89.0891 90.6276 88.7991C90.8276 88.6657 91.0491 88.5961 91.2738 88.5961C91.4986 88.5961 91.72 88.6657 91.92 88.7991C92.0089 88.8223 92.0888 88.8848 92.1462 88.9759C92.2036 89.0671 92.235 89.1812 92.235 89.2991C92.235 89.4169 92.2036 89.531 92.1462 89.6222C92.0888 89.7133 92.0089 89.7758 91.92 89.7991Z" fill="white"/>
<path d="M84.0505 96.619C83.8505 96.7524 83.629 96.822 83.4043 96.822C83.1795 96.822 82.958 96.7524 82.7581 96.619C82.3965 96.349 82.3965 95.919 82.7581 95.619C82.958 95.4857 83.1795 95.4161 83.4043 95.4161C83.629 95.4161 83.8505 95.4857 84.0505 95.619C84.1393 95.6423 84.2192 95.7047 84.2766 95.7959C84.3341 95.887 84.3655 96.0012 84.3655 96.119C84.3655 96.2368 84.3341 96.351 84.2766 96.4422C84.2192 96.5333 84.1393 96.5958 84.0505 96.619V96.619Z" fill="#C0751D"/>
<path opacity="0.7" d="M84.0505 96.619C83.8505 96.7524 83.629 96.822 83.4043 96.822C83.1795 96.822 82.958 96.7524 82.7581 96.619C82.3965 96.349 82.3965 95.919 82.7581 95.619C82.958 95.4857 83.1795 95.4161 83.4043 95.4161C83.629 95.4161 83.8505 95.4857 84.0505 95.619C84.1393 95.6423 84.2192 95.7047 84.2766 95.7959C84.3341 95.887 84.3655 96.0012 84.3655 96.119C84.3655 96.2368 84.3341 96.351 84.2766 96.4422C84.2192 96.5333 84.1393 96.5958 84.0505 96.619V96.619Z" fill="white"/>
<path d="M95.3048 98.429C95.1048 98.5624 94.8833 98.632 94.6586 98.632C94.4338 98.632 94.2123 98.5624 94.0124 98.429C93.9235 98.4058 93.8436 98.3433 93.7862 98.2522C93.7287 98.161 93.6974 98.0468 93.6974 97.929C93.6974 97.8112 93.7287 97.6971 93.7862 97.6059C93.8436 97.5148 93.9235 97.4522 94.0124 97.429C94.2123 97.2957 94.4338 97.2261 94.6586 97.2261C94.8833 97.2261 95.1048 97.2957 95.3048 97.429C95.3936 97.4522 95.4735 97.5148 95.531 97.6059C95.5884 97.6971 95.6198 97.8112 95.6198 97.929C95.6198 98.0468 95.5884 98.161 95.531 98.2522C95.4735 98.3433 95.3936 98.4058 95.3048 98.429Z" fill="#C0751D"/>
<path opacity="0.7" d="M95.3048 98.429C95.1048 98.5624 94.8833 98.632 94.6586 98.632C94.4338 98.632 94.2123 98.5624 94.0124 98.429C93.9235 98.4058 93.8436 98.3433 93.7862 98.2522C93.7287 98.161 93.6974 98.0468 93.6974 97.929C93.6974 97.8112 93.7287 97.6971 93.7862 97.6059C93.8436 97.5148 93.9235 97.4522 94.0124 97.429C94.2123 97.2957 94.4338 97.2261 94.6586 97.2261C94.8833 97.2261 95.1048 97.2957 95.3048 97.429C95.3936 97.4522 95.4735 97.5148 95.531 97.6059C95.5884 97.6971 95.6198 97.8112 95.6198 97.929C95.6198 98.0468 95.5884 98.161 95.531 98.2522C95.4735 98.3433 95.3936 98.4058 95.3048 98.429Z" fill="white"/>
<path d="M98.2972 87.4491C98.0986 87.5823 97.8783 87.6519 97.6548 87.6519C97.4314 87.6519 97.2111 87.5823 97.0125 87.4491C96.6509 87.1791 96.6509 86.7491 97.0125 86.4491C97.2123 86.3211 97.4321 86.2546 97.6548 86.2546C97.8776 86.2546 98.0974 86.3211 98.2972 86.4491C98.6587 86.7491 98.6587 87.1791 98.2972 87.4491Z" fill="#C0751D"/>
<path opacity="0.7" d="M98.2972 87.4491C98.0986 87.5823 97.8783 87.6519 97.6548 87.6519C97.4314 87.6519 97.2111 87.5823 97.0125 87.4491C96.6509 87.1791 96.6509 86.7491 97.0125 86.4491C97.2123 86.3211 97.4321 86.2546 97.6548 86.2546C97.8776 86.2546 98.0974 86.3211 98.2972 86.4491C98.6587 86.7491 98.6587 87.1791 98.2972 87.4491Z" fill="white"/>
<path d="M52.6492 77.789C46.8643 82.129 37.4793 82.129 31.6944 77.789C25.9096 73.449 25.9096 66.409 31.6944 62.069C37.4793 57.729 46.8643 57.729 52.6492 62.069C58.434 66.409 58.4648 73.449 52.6492 77.789Z" fill="#C0751D"/>
<path opacity="0.2" d="M52.6492 77.789C46.8643 82.129 37.4793 82.129 31.6944 77.789C25.9096 73.449 25.9096 66.409 31.6944 62.069C37.4793 57.729 46.8643 57.729 52.6492 62.069C58.434 66.409 58.4648 73.449 52.6492 77.789Z" fill="#4F3C3C"/>
<path d="M42.1718 78.959C50.3545 78.959 56.9878 73.9804 56.9878 67.839C56.9878 61.6976 50.3545 56.719 42.1718 56.719C33.9892 56.719 27.3558 61.6976 27.3558 67.839C27.3558 73.9804 33.9892 78.959 42.1718 78.959Z" fill="#C0751D"/>
<path opacity="0.4" d="M42.1718 78.959C50.3545 78.959 56.9878 73.9804 56.9878 67.839C56.9878 61.6976 50.3545 56.719 42.1718 56.719C33.9892 56.719 27.3558 61.6976 27.3558 67.839C27.3558 73.9804 33.9892 78.959 42.1718 78.959Z" fill="#DD6363"/>
<path d="M36.1562 63.379C35.8143 63.6056 35.436 63.7236 35.0523 63.7236C34.6686 63.7236 34.2903 63.6056 33.9484 63.379C33.8125 63.3235 33.6938 63.2131 33.6095 63.0638C33.5252 62.9146 33.4797 62.7342 33.4797 62.5491C33.4797 62.3639 33.5252 62.1835 33.6095 62.0343C33.6938 61.885 33.8125 61.7745 33.9484 61.719C34.2903 61.4925 34.6686 61.3744 35.0523 61.3744C35.436 61.3744 35.8143 61.4925 36.1562 61.719C36.2921 61.7745 36.4108 61.885 36.4951 62.0343C36.5794 62.1835 36.6248 62.3639 36.6248 62.5491C36.6248 62.7342 36.5794 62.9146 36.4951 63.0638C36.4108 63.2131 36.2921 63.3235 36.1562 63.379V63.379Z" fill="#C0751D"/>
<path opacity="0.7" d="M36.1562 63.379C35.8143 63.6056 35.436 63.7236 35.0523 63.7236C34.6686 63.7236 34.2903 63.6056 33.9484 63.379C33.8125 63.3235 33.6938 63.2131 33.6095 63.0638C33.5252 62.9146 33.4797 62.7342 33.4797 62.5491C33.4797 62.3639 33.5252 62.1835 33.6095 62.0343C33.6938 61.885 33.8125 61.7745 33.9484 61.719C34.2903 61.4925 34.6686 61.3744 35.0523 61.3744C35.436 61.3744 35.8143 61.4925 36.1562 61.719C36.2921 61.7745 36.4108 61.885 36.4951 62.0343C36.5794 62.1835 36.6248 62.3639 36.6248 62.5491C36.6248 62.7342 36.5794 62.9146 36.4951 63.0638C36.4108 63.2131 36.2921 63.3235 36.1562 63.379V63.379Z" fill="white"/>
<path d="M43.4488 74.059C44.3155 74.059 45.0181 73.5307 45.0181 72.879C45.0181 72.2273 44.3155 71.6991 43.4488 71.6991C42.5821 71.6991 41.8795 72.2273 41.8795 72.879C41.8795 73.5307 42.5821 74.059 43.4488 74.059Z" fill="#C0751D"/>
<path opacity="0.7" d="M43.4488 74.059C44.3155 74.059 45.0181 73.5307 45.0181 72.879C45.0181 72.2273 44.3155 71.6991 43.4488 71.6991C42.5821 71.6991 41.8795 72.2273 41.8795 72.879C41.8795 73.5307 42.5821 74.059 43.4488 74.059Z" fill="white"/>
<path d="M32.3099 66.989C32.1113 67.1223 31.891 67.1919 31.6675 67.1919C31.444 67.1919 31.2238 67.1223 31.0252 66.989C30.6636 66.719 30.6636 66.289 31.0252 65.989C31.2238 65.8557 31.444 65.7862 31.6675 65.7862C31.891 65.7862 32.1113 65.8557 32.3099 65.989C32.6714 66.289 32.6714 66.719 32.3099 66.989Z" fill="#C0751D"/>
<path opacity="0.7" d="M32.3099 66.989C32.1113 67.1223 31.891 67.1919 31.6675 67.1919C31.444 67.1919 31.2238 67.1223 31.0252 66.989C30.6636 66.719 30.6636 66.289 31.0252 65.989C31.2238 65.8557 31.444 65.7862 31.6675 65.7862C31.891 65.7862 32.1113 65.8557 32.3099 65.989C32.6714 66.289 32.6714 66.719 32.3099 66.989Z" fill="white"/>
<path d="M42.1333 69.619C41.9321 69.7471 41.7111 69.8137 41.4871 69.8137C41.2631 69.8137 41.0421 69.7471 40.841 69.619C40.4794 69.349 40.4794 68.919 40.841 68.619C41.0409 68.4857 41.2624 68.4161 41.4871 68.4161C41.7119 68.4161 41.9334 68.4857 42.1333 68.619C42.2222 68.6423 42.3021 68.7047 42.3595 68.7959C42.417 68.887 42.4483 69.0012 42.4483 69.119C42.4483 69.2368 42.417 69.351 42.3595 69.4422C42.3021 69.5333 42.2222 69.5958 42.1333 69.619Z" fill="#C0751D"/>
<path opacity="0.7" d="M42.1333 69.619C41.9321 69.7471 41.7111 69.8137 41.4871 69.8137C41.2631 69.8137 41.0421 69.7471 40.841 69.619C40.4794 69.349 40.4794 68.919 40.841 68.619C41.0409 68.4857 41.2624 68.4161 41.4871 68.4161C41.7119 68.4161 41.9334 68.4857 42.1333 68.619C42.2222 68.6423 42.3021 68.7047 42.3595 68.7959C42.417 68.887 42.4483 69.0012 42.4483 69.119C42.4483 69.2368 42.417 69.351 42.3595 69.4422C42.3021 69.5333 42.2222 69.5958 42.1333 69.619Z" fill="white"/>
<path d="M44.5103 66.1091C45.0159 66.1091 45.4258 65.8001 45.4258 65.4191C45.4258 65.038 45.0159 64.729 44.5103 64.729C44.0048 64.729 43.5949 65.038 43.5949 65.4191C43.5949 65.8001 44.0048 66.1091 44.5103 66.1091Z" fill="#C0751D"/>
<path opacity="0.7" d="M44.5103 66.1091C45.0159 66.1091 45.4258 65.8001 45.4258 65.4191C45.4258 65.038 45.0159 64.729 44.5103 64.729C44.0048 64.729 43.5949 65.038 43.5949 65.4191C43.5949 65.8001 44.0048 66.1091 44.5103 66.1091Z" fill="white"/>
<path d="M36.6408 72.929C37.1464 72.929 37.5562 72.6201 37.5562 72.239C37.5562 71.858 37.1464 71.5491 36.6408 71.5491C36.1352 71.5491 35.7254 71.858 35.7254 72.239C35.7254 72.6201 36.1352 72.929 36.6408 72.929Z" fill="#C0751D"/>
<path opacity="0.7" d="M36.6408 72.929C37.1464 72.929 37.5562 72.6201 37.5562 72.239C37.5562 71.858 37.1464 71.5491 36.6408 71.5491C36.1352 71.5491 35.7254 71.858 35.7254 72.239C35.7254 72.6201 36.1352 72.929 36.6408 72.929Z" fill="white"/>
<path d="M48.5413 74.539C48.3427 74.6723 48.1225 74.7419 47.899 74.7419C47.6755 74.7419 47.4552 74.6723 47.2566 74.539C46.8951 74.269 46.8951 73.839 47.2566 73.539C47.4552 73.4058 47.6755 73.3362 47.899 73.3362C48.1225 73.3362 48.3427 73.4058 48.5413 73.539C48.9028 73.839 48.9028 74.269 48.5413 74.539Z" fill="#C0751D"/>
<path opacity="0.7" d="M48.5413 74.539C48.3427 74.6723 48.1225 74.7419 47.899 74.7419C47.6755 74.7419 47.4552 74.6723 47.2566 74.539C46.8951 74.269 46.8951 73.839 47.2566 73.539C47.4552 73.4058 47.6755 73.3362 47.899 73.3362C48.1225 73.3362 48.3427 73.4058 48.5413 73.539C48.9028 73.839 48.9028 74.269 48.5413 74.539Z" fill="white"/>
<path d="M51.5414 63.559C51.3415 63.6924 51.12 63.762 50.8952 63.762C50.6705 63.762 50.449 63.6924 50.249 63.559C50.1602 63.5358 50.0803 63.4733 50.0228 63.3822C49.9654 63.291 49.934 63.1769 49.934 63.059C49.934 62.9412 49.9654 62.827 50.0228 62.7359C50.0803 62.6447 50.1602 62.5823 50.249 62.559C50.449 62.4257 50.6705 62.3561 50.8952 62.3561C51.12 62.3561 51.3415 62.4257 51.5414 62.559C51.6303 62.5823 51.7102 62.6447 51.7676 62.7359C51.825 62.827 51.8564 62.9412 51.8564 63.059C51.8564 63.1769 51.825 63.291 51.7676 63.3822C51.7102 63.4733 51.6303 63.5358 51.5414 63.559Z" fill="#C0751D"/>
<path opacity="0.7" d="M51.5414 63.559C51.3415 63.6924 51.12 63.762 50.8952 63.762C50.6705 63.762 50.449 63.6924 50.249 63.559C50.1602 63.5358 50.0803 63.4733 50.0228 63.3822C49.9654 63.291 49.934 63.1769 49.934 63.059C49.934 62.9412 49.9654 62.827 50.0228 62.7359C50.0803 62.6447 50.1602 62.5823 50.249 62.559C50.449 62.4257 50.6705 62.3561 50.8952 62.3561C51.12 62.3561 51.3415 62.4257 51.5414 62.559C51.6303 62.5823 51.7102 62.6447 51.7676 62.7359C51.825 62.827 51.8564 62.9412 51.8564 63.059C51.8564 63.1769 51.825 63.291 51.7676 63.3822C51.7102 63.4733 51.6303 63.5358 51.5414 63.559Z" fill="white"/>
<path d="M146.161 77.789C140.376 82.129 130.999 82.129 125.214 77.789C119.429 73.449 119.429 66.409 125.214 62.069C130.999 57.729 140.376 57.729 146.161 62.069C151.946 66.409 151.953 73.449 146.161 77.789Z" fill="#C0751D"/>
<path opacity="0.2" d="M146.161 77.789C140.376 82.129 130.999 82.129 125.214 77.789C119.429 73.449 119.429 66.409 125.214 62.069C130.999 57.729 140.376 57.729 146.161 62.069C151.946 66.409 151.953 73.449 146.161 77.789Z" fill="#4F3C3C"/>
<path d="M135.691 78.959C143.874 78.959 150.507 73.9804 150.507 67.839C150.507 61.6976 143.874 56.719 135.691 56.719C127.508 56.719 120.875 61.6976 120.875 67.839C120.875 73.9804 127.508 78.959 135.691 78.959Z" fill="#C0751D"/>
<path opacity="0.4" d="M135.691 78.959C143.874 78.959 150.507 73.9804 150.507 67.839C150.507 61.6976 143.874 56.719 135.691 56.719C127.508 56.719 120.875 61.6976 120.875 67.839C120.875 73.9804 127.508 78.959 135.691 78.959Z" fill="#DD6363"/>
<path d="M129.706 63.379C129.363 63.6057 128.983 63.7238 128.598 63.7238C128.213 63.7238 127.834 63.6057 127.491 63.379C127.355 63.3235 127.236 63.2131 127.152 63.0638C127.067 62.9146 127.022 62.7342 127.022 62.5491C127.022 62.3639 127.067 62.1835 127.152 62.0343C127.236 61.885 127.355 61.7745 127.491 61.719C127.834 61.4924 128.213 61.3743 128.598 61.3743C128.983 61.3743 129.363 61.4924 129.706 61.719C129.838 61.7796 129.953 61.8919 130.034 62.0406C130.115 62.1892 130.158 62.3669 130.158 62.5491C130.158 62.7312 130.115 62.9088 130.034 63.0575C129.953 63.2062 129.838 63.3185 129.706 63.379V63.379Z" fill="#C0751D"/>
<path opacity="0.7" d="M129.706 63.379C129.363 63.6057 128.983 63.7238 128.598 63.7238C128.213 63.7238 127.834 63.6057 127.491 63.379C127.355 63.3235 127.236 63.2131 127.152 63.0638C127.067 62.9146 127.022 62.7342 127.022 62.5491C127.022 62.3639 127.067 62.1835 127.152 62.0343C127.236 61.885 127.355 61.7745 127.491 61.719C127.834 61.4924 128.213 61.3743 128.598 61.3743C128.983 61.3743 129.363 61.4924 129.706 61.719C129.838 61.7796 129.953 61.8919 130.034 62.0406C130.115 62.1892 130.158 62.3669 130.158 62.5491C130.158 62.7312 130.115 62.9088 130.034 63.0575C129.953 63.2062 129.838 63.3185 129.706 63.379V63.379Z" fill="white"/>
<path d="M138.076 73.709C137.733 73.9356 137.353 74.0538 136.968 74.0538C136.583 74.0538 136.204 73.9356 135.86 73.709C135.728 73.6485 135.614 73.5362 135.533 73.3875C135.452 73.2389 135.408 73.0612 135.408 72.879C135.408 72.6969 135.452 72.5192 135.533 72.3706C135.614 72.2219 135.728 72.1096 135.86 72.0491C136.204 71.8224 136.583 71.7043 136.968 71.7043C137.353 71.7043 137.733 71.8224 138.076 72.0491C138.212 72.1046 138.33 72.215 138.415 72.3642C138.499 72.5135 138.544 72.6939 138.544 72.879C138.544 73.0642 138.499 73.2446 138.415 73.3938C138.33 73.5431 138.212 73.6535 138.076 73.709V73.709Z" fill="#C0751D"/>
<path opacity="0.7" d="M138.076 73.709C137.733 73.9356 137.353 74.0538 136.968 74.0538C136.583 74.0538 136.204 73.9356 135.86 73.709C135.728 73.6485 135.614 73.5362 135.533 73.3875C135.452 73.2389 135.408 73.0612 135.408 72.879C135.408 72.6969 135.452 72.5192 135.533 72.3706C135.614 72.2219 135.728 72.1096 135.86 72.0491C136.204 71.8224 136.583 71.7043 136.968 71.7043C137.353 71.7043 137.733 71.8224 138.076 72.0491C138.212 72.1046 138.33 72.215 138.415 72.3642C138.499 72.5135 138.544 72.6939 138.544 72.879C138.544 73.0642 138.499 73.2446 138.415 73.3938C138.33 73.5431 138.212 73.6535 138.076 73.709V73.709Z" fill="white"/>
<path d="M125.191 67.1991C125.696 67.1991 126.106 66.8901 126.106 66.509C126.106 66.128 125.696 65.819 125.191 65.819C124.685 65.819 124.275 66.128 124.275 66.509C124.275 66.8901 124.685 67.1991 125.191 67.1991Z" fill="#C0751D"/>
<path opacity="0.7" d="M125.191 67.1991C125.696 67.1991 126.106 66.8901 126.106 66.509C126.106 66.128 125.696 65.819 125.191 65.819C124.685 65.819 124.275 66.128 124.275 66.509C124.275 66.8901 124.685 67.1991 125.191 67.1991Z" fill="white"/>
<path d="M135.653 69.619C135.451 69.7471 135.23 69.8137 135.006 69.8137C134.782 69.8137 134.561 69.7471 134.36 69.619C134.271 69.5958 134.191 69.5333 134.134 69.4422C134.077 69.351 134.045 69.2368 134.045 69.119C134.045 69.0012 134.077 68.887 134.134 68.7959C134.191 68.7047 134.271 68.6423 134.36 68.619C134.56 68.4857 134.782 68.4161 135.006 68.4161C135.231 68.4161 135.453 68.4857 135.653 68.619C135.741 68.6423 135.821 68.7047 135.879 68.7959C135.936 68.887 135.968 69.0012 135.968 69.119C135.968 69.2368 135.936 69.351 135.879 69.4422C135.821 69.5333 135.741 69.5958 135.653 69.619V69.619Z" fill="#C0751D"/>
<path opacity="0.7" d="M135.653 69.619C135.451 69.7471 135.23 69.8137 135.006 69.8137C134.782 69.8137 134.561 69.7471 134.36 69.619C134.271 69.5958 134.191 69.5333 134.134 69.4422C134.077 69.351 134.045 69.2368 134.045 69.119C134.045 69.0012 134.077 68.887 134.134 68.7959C134.191 68.7047 134.271 68.6423 134.36 68.619C134.56 68.4857 134.782 68.4161 135.006 68.4161C135.231 68.4161 135.453 68.4857 135.653 68.619C135.741 68.6423 135.821 68.7047 135.879 68.7959C135.936 68.887 135.968 69.0012 135.968 69.119C135.968 69.2368 135.936 69.351 135.879 69.4422C135.821 69.5333 135.741 69.5958 135.653 69.619V69.619Z" fill="white"/>
<path d="M138.676 65.899C138.476 66.0324 138.254 66.102 138.03 66.102C137.805 66.102 137.583 66.0324 137.383 65.899C137.295 65.8758 137.215 65.8133 137.157 65.7222C137.1 65.631 137.068 65.5168 137.068 65.399C137.068 65.2812 137.1 65.1671 137.157 65.0759C137.215 64.9848 137.295 64.9222 137.383 64.899C137.583 64.7657 137.805 64.6961 138.03 64.6961C138.254 64.6961 138.476 64.7657 138.676 64.899C139.037 65.199 139.037 65.629 138.676 65.899Z" fill="#C0751D"/>
<path opacity="0.7" d="M138.676 65.899C138.476 66.0324 138.254 66.102 138.03 66.102C137.805 66.102 137.583 66.0324 137.383 65.899C137.295 65.8758 137.215 65.8133 137.157 65.7222C137.1 65.631 137.068 65.5168 137.068 65.399C137.068 65.2812 137.1 65.1671 137.157 65.0759C137.215 64.9848 137.295 64.9222 137.383 64.899C137.583 64.7657 137.805 64.6961 138.03 64.6961C138.254 64.6961 138.476 64.7657 138.676 64.899C139.037 65.199 139.037 65.629 138.676 65.899Z" fill="white"/>
<path d="M130.775 72.719C130.576 72.8524 130.354 72.922 130.129 72.922C129.905 72.922 129.683 72.8524 129.483 72.719C129.394 72.6958 129.314 72.6333 129.257 72.5422C129.199 72.451 129.168 72.3369 129.168 72.219C129.168 72.1012 129.199 71.987 129.257 71.8959C129.314 71.8047 129.394 71.7423 129.483 71.719C129.683 71.5857 129.905 71.5161 130.129 71.5161C130.354 71.5161 130.576 71.5857 130.775 71.719C130.864 71.7423 130.944 71.8047 131.002 71.8959C131.059 71.987 131.09 72.1012 131.09 72.219C131.09 72.3369 131.059 72.451 131.002 72.5422C130.944 72.6333 130.864 72.6958 130.775 72.719V72.719Z" fill="#C0751D"/>
<path opacity="0.7" d="M130.775 72.719C130.576 72.8524 130.354 72.922 130.129 72.922C129.905 72.922 129.683 72.8524 129.483 72.719C129.394 72.6958 129.314 72.6333 129.257 72.5422C129.199 72.451 129.168 72.3369 129.168 72.219C129.168 72.1012 129.199 71.987 129.257 71.8959C129.314 71.8047 129.394 71.7423 129.483 71.719C129.683 71.5857 129.905 71.5161 130.129 71.5161C130.354 71.5161 130.576 71.5857 130.775 71.719C130.864 71.7423 130.944 71.8047 131.002 71.8959C131.059 71.987 131.09 72.1012 131.09 72.219C131.09 72.3369 131.059 72.451 131.002 72.5422C130.944 72.6333 130.864 72.6958 130.775 72.719V72.719Z" fill="white"/>
<path d="M142.068 74.539C141.868 74.6724 141.647 74.742 141.422 74.742C141.197 74.742 140.976 74.6724 140.776 74.539C140.414 74.269 140.414 73.839 140.776 73.539C140.976 73.4057 141.197 73.3361 141.422 73.3361C141.647 73.3361 141.868 73.4057 142.068 73.539C142.157 73.5623 142.237 73.6247 142.294 73.7159C142.352 73.807 142.383 73.9212 142.383 74.039C142.383 74.1569 142.352 74.2711 142.294 74.3622C142.237 74.4533 142.157 74.5158 142.068 74.539Z" fill="#C0751D"/>
<path opacity="0.7" d="M142.068 74.539C141.868 74.6724 141.647 74.742 141.422 74.742C141.197 74.742 140.976 74.6724 140.776 74.539C140.414 74.269 140.414 73.839 140.776 73.539C140.976 73.4057 141.197 73.3361 141.422 73.3361C141.647 73.3361 141.868 73.4057 142.068 73.539C142.157 73.5623 142.237 73.6247 142.294 73.7159C142.352 73.807 142.383 73.9212 142.383 74.039C142.383 74.1569 142.352 74.2711 142.294 74.3622C142.237 74.4533 142.157 74.5158 142.068 74.539Z" fill="white"/>
<path d="M145.061 63.559C144.861 63.6924 144.639 63.762 144.414 63.762C144.19 63.762 143.968 63.6924 143.768 63.559C143.679 63.5358 143.6 63.4733 143.542 63.3822C143.485 63.291 143.453 63.1769 143.453 63.059C143.453 62.9412 143.485 62.827 143.542 62.7359C143.6 62.6447 143.679 62.5823 143.768 62.559C143.968 62.4257 144.19 62.3561 144.414 62.3561C144.639 62.3561 144.861 62.4257 145.061 62.559C145.15 62.5823 145.229 62.6447 145.287 62.7359C145.344 62.827 145.376 62.9412 145.376 63.059C145.376 63.1769 145.344 63.291 145.287 63.3822C145.229 63.4733 145.15 63.5358 145.061 63.559Z" fill="#C0751D"/>
<path opacity="0.7" d="M145.061 63.559C144.861 63.6924 144.639 63.762 144.414 63.762C144.19 63.762 143.968 63.6924 143.768 63.559C143.679 63.5358 143.6 63.4733 143.542 63.3822C143.485 63.291 143.453 63.1769 143.453 63.059C143.453 62.9412 143.485 62.827 143.542 62.7359C143.6 62.6447 143.679 62.5823 143.768 62.559C143.968 62.4257 144.19 62.3561 144.414 62.3561C144.639 62.3561 144.861 62.4257 145.061 62.559C145.15 62.5823 145.229 62.6447 145.287 62.7359C145.344 62.827 145.376 62.9412 145.376 63.059C145.376 63.1769 145.344 63.291 145.287 63.3822C145.229 63.4733 145.15 63.5358 145.061 63.559Z" fill="white"/>
<path d="M68.1113 84.119C66.7054 84.1491 65.3173 83.7083 64.0804 82.839C63.4878 82.5226 62.981 81.9843 62.6243 81.2926C62.2676 80.6008 62.0771 79.7868 62.0771 78.9541C62.0771 78.1213 62.2676 77.3073 62.6243 76.6155C62.981 75.9238 63.4878 75.3855 64.0804 75.069C65.3264 74.2317 66.7086 73.7947 68.1113 73.7947C69.514 73.7947 70.8962 74.2317 72.1423 75.069C72.7348 75.3855 73.2417 75.9238 73.5984 76.6155C73.9551 77.3073 74.1455 78.1213 74.1455 78.9541C74.1455 79.7868 73.9551 80.6008 73.5984 81.2926C73.2417 81.9843 72.7348 82.5226 72.1423 82.839V82.839C70.9051 83.7074 69.5171 84.1482 68.1113 84.119V84.119ZM68.1113 76.789C67.1113 76.7603 66.1218 77.0595 65.2343 77.659C64.7035 78.059 64.3804 78.5491 64.3804 78.9491C64.3804 79.3491 64.7035 79.849 65.2343 80.249C66.1294 80.8217 67.1137 81.1195 68.1113 81.1195C69.109 81.1195 70.0933 80.8217 70.9884 80.249V80.249C71.5192 79.849 71.8346 79.3591 71.8346 78.9491C71.8346 78.5391 71.5192 78.059 70.9884 77.659C70.1004 77.0607 69.1112 76.7616 68.1113 76.789V76.789Z" fill="#455A64"/>
<path d="M108.721 83.759C107.318 83.7914 105.933 83.354 104.697 82.489C104.103 82.1742 103.593 81.6359 103.235 80.943C102.876 80.2501 102.685 79.4341 102.685 78.599C102.685 77.764 102.876 76.9479 103.235 76.2551C103.593 75.5622 104.103 75.0239 104.697 74.709C105.943 73.8757 107.324 73.441 108.725 73.441C110.125 73.441 111.506 73.8757 112.752 74.709C113.347 75.0239 113.856 75.5622 114.214 76.2551C114.573 76.9479 114.764 77.764 114.764 78.599C114.764 79.4341 114.573 80.2501 114.214 80.943C113.856 81.6359 113.347 82.1742 112.752 82.489V82.489C111.514 83.3552 110.126 83.7926 108.721 83.759ZM108.721 76.429C107.722 76.4033 106.735 76.706 105.851 77.309C105.313 77.709 104.997 78.189 104.997 78.599C104.997 79.009 105.313 79.4891 105.851 79.8891C106.744 80.466 107.728 80.7663 108.725 80.7663C109.722 80.7663 110.705 80.466 111.598 79.8891C112.129 79.4891 112.452 79.009 112.452 78.599C112.452 78.189 112.129 77.709 111.598 77.309C110.711 76.7048 109.721 76.4021 108.721 76.429V76.429Z" fill="#455A64"/>
<path d="M139.122 40.5791C137.717 40.6126 136.328 40.1752 135.091 39.309C134.496 38.9942 133.987 38.4559 133.628 37.763C133.27 37.0702 133.078 36.2541 133.078 35.4191C133.078 34.584 133.27 33.7679 133.628 33.075C133.987 32.3822 134.496 31.8439 135.091 31.529C136.337 30.6916 137.719 30.2547 139.122 30.2547C140.525 30.2547 141.907 30.6916 143.153 31.529C143.745 31.8475 144.251 32.3872 144.607 33.0796C144.963 33.772 145.153 34.5862 145.153 35.4191C145.153 36.2519 144.963 37.0661 144.607 37.7585C144.251 38.4509 143.745 38.9905 143.153 39.309V39.309C141.915 40.174 140.527 40.6113 139.122 40.5791ZM139.122 33.249C138.121 33.2185 137.13 33.5215 136.245 34.129C135.714 34.529 135.391 35.0091 135.391 35.4191C135.391 35.8291 135.714 36.309 136.245 36.709C137.139 37.2861 138.124 37.5864 139.122 37.5864C140.12 37.5864 141.105 37.2861 141.999 36.709C142.53 36.309 142.845 35.8291 142.845 35.4191C142.845 35.0091 142.53 34.529 141.999 34.129C141.113 33.5227 140.123 33.2199 139.122 33.249V33.249Z" fill="#455A64"/>
<path d="M114.736 56.229C115.69 56.8779 116.468 57.8896 116.967 59.129C117.536 60.729 120.213 61.279 121.767 60.129L121.929 60.009C125.006 57.559 125.006 53.639 121.983 51.179C118.636 48.469 113.005 48.409 109.559 50.999H109.521C107.982 52.159 108.751 54.139 110.882 54.559C112.235 54.8048 113.541 55.3708 114.736 56.229V56.229Z" fill="#E0E0E0"/>
<path d="M117.698 56.209L116.244 55.119L114.79 54.029L108.559 57.119C107.659 57.559 107.536 58.509 108.298 59.119L109.628 60.119L110.959 61.119C111.369 61.3971 111.829 61.5263 112.291 61.4928C112.753 61.4594 113.199 61.2646 113.582 60.929L117.698 56.209Z" fill="#E0E0E0"/>
<path d="M114.736 54.459C115.691 55.1016 116.47 56.1107 116.967 57.349C117.536 58.949 120.213 59.509 121.767 58.349L121.929 58.229C125.006 55.789 125.006 51.859 121.983 49.399C118.636 46.689 113.005 46.629 109.559 49.219H109.521C107.982 50.379 108.751 52.359 110.882 52.779C112.235 53.0279 113.541 53.5973 114.736 54.459Z" fill="#FAFAFA"/>
<path d="M117.698 54.429L116.229 53.379L114.775 52.289L108.544 55.379C107.644 55.829 107.521 56.779 108.282 57.379L109.613 58.379L110.944 59.379C111.354 59.6557 111.815 59.7831 112.277 59.7479C112.738 59.7127 113.184 59.5162 113.567 59.179L117.698 54.429Z" fill="#FAFAFA"/>
<path d="M89.3507 71.779C90.3036 72.4253 91.08 73.438 91.5738 74.679C92.1431 76.279 94.8201 76.829 96.374 75.679L96.5356 75.5491C99.6126 73.1091 99.6126 69.189 96.5894 66.729C93.2431 64.019 87.6121 63.959 84.1658 66.539H84.1274C82.5888 67.699 83.3581 69.679 85.489 70.099C86.8443 70.3478 88.1531 70.9172 89.3507 71.779Z" fill="#E0E0E0"/>
<path d="M92.3123 71.759L90.8584 70.6691L89.4045 69.569L83.1735 72.6691C82.2735 73.1091 82.1504 74.0591 82.9119 74.6691L84.2428 75.6691L85.5736 76.6691C85.9837 76.9478 86.4444 77.0765 86.9065 77.0412C87.3685 77.006 87.8145 76.8082 88.1968 76.469L92.3123 71.759Z" fill="#E0E0E0"/>
<path d="M89.3507 70.009C90.303 70.6516 91.0795 71.661 91.5738 72.899C92.1431 74.499 94.8201 75.059 96.374 73.899L96.5356 73.779C99.6126 71.339 99.6126 67.409 96.5894 64.949C93.2431 62.239 87.6121 62.1791 84.1658 64.7691H84.1274C82.5888 65.9291 83.3581 67.909 85.489 68.329C86.8451 68.5733 88.1546 69.143 89.3507 70.009V70.009Z" fill="#FAFAFA"/>
<path d="M92.3123 69.979L90.8584 68.8891L89.4045 67.7991L83.1735 70.8891C82.2735 71.3391 82.1504 72.2891 82.9119 72.8891L84.2428 73.8891L85.5736 74.8891C85.9842 75.1657 86.4446 75.2932 86.9063 75.2579C87.368 75.2227 87.8139 75.0262 88.1968 74.689L92.3123 69.979Z" fill="#FAFAFA"/>
<path d="M63.8496 56.229C62.8982 56.878 62.1223 57.89 61.6264 59.129C61.0572 60.729 58.3801 61.279 56.8262 60.129L56.6647 60.009C53.5876 57.559 53.5876 53.639 56.6108 51.179C59.9494 48.469 65.5881 48.409 69.0344 50.999H69.0729C70.6114 52.159 69.8422 54.139 67.7113 54.559C66.3562 54.8031 65.0472 55.3692 63.8496 56.229V56.229Z" fill="#E0E0E0"/>
<path d="M60.9418 56.209L62.3957 55.119L63.8496 54.029L70.0806 57.119C70.973 57.559 71.1038 58.509 70.3422 59.119L69.0114 60.119L67.6806 61.119C67.2706 61.3971 66.8105 61.5263 66.3488 61.4928C65.8872 61.4594 65.441 61.2646 65.0574 60.929L60.9418 56.209Z" fill="#E0E0E0"/>
<path d="M63.8496 54.459C62.8972 55.1016 62.1208 56.111 61.6264 57.349C61.0572 58.949 58.3801 59.509 56.8262 58.349L56.6647 58.229C53.5876 55.789 53.5876 51.859 56.6108 49.399C59.9494 46.689 65.5881 46.629 69.0344 49.219H69.0729C70.6114 50.379 69.8422 52.359 67.7113 52.779C66.3557 53.0262 65.0466 53.5957 63.8496 54.459V54.459Z" fill="#FAFAFA"/>
<path d="M60.9418 54.429L62.3957 53.339L63.8496 52.249L70.0806 55.339C70.973 55.789 71.1038 56.739 70.3422 57.339L69.0114 58.339L67.6806 59.339C67.2699 59.6157 66.8095 59.7431 66.3478 59.7079C65.8861 59.6727 65.4403 59.4762 65.0574 59.1391L60.9418 54.429Z" fill="#FAFAFA"/>
<path d="M146.591 50.869C147.544 51.5116 148.32 52.521 148.815 53.759C149.384 55.359 152.061 55.919 153.615 54.759L153.776 54.629C156.853 52.189 156.853 48.269 153.83 45.799C150.492 43.099 144.853 43.039 141.407 45.619H141.368C139.83 46.779 140.599 48.759 142.73 49.179C144.086 49.4294 145.395 50.0022 146.591 50.869V50.869Z" fill="#E0E0E0"/>
<path d="M149.538 50.849L148.076 49.749L146.622 48.659L140.391 51.749C139.499 52.199 139.368 53.149 140.13 53.749L141.461 54.749L142.799 55.749C143.208 56.028 143.667 56.1568 144.128 56.1216C144.589 56.0863 145.034 55.8884 145.415 55.5491L149.538 50.849Z" fill="#E0E0E0"/>
<path d="M146.591 49.099C147.544 49.7416 148.32 50.751 148.815 51.989C149.384 53.589 152.061 54.149 153.615 52.989L153.776 52.869C156.853 50.419 156.853 46.499 153.83 44.039C150.492 41.329 144.853 41.269 141.407 43.859H141.368C139.83 45.019 140.599 46.989 142.73 47.409C144.086 47.6596 145.395 48.2325 146.591 49.099V49.099Z" fill="#FAFAFA"/>
<path d="M149.538 49.069L148.076 47.979L146.622 46.8891L140.391 49.979C139.499 50.419 139.368 51.369 140.13 51.979L141.461 52.979L142.799 53.979C143.208 54.2559 143.667 54.3835 144.128 54.3483C144.589 54.313 145.033 54.1163 145.415 53.779L149.538 49.069Z" fill="#FAFAFA"/>
<path d="M36.7562 39.309C36.1613 38.9942 35.652 38.4559 35.2935 37.763C34.935 37.0702 34.7435 36.2541 34.7435 35.4191C34.7435 34.584 34.935 33.7679 35.2935 33.075C35.652 32.3822 36.1613 31.8439 36.7562 31.529C38.0007 30.6909 39.3817 30.2535 40.7833 30.2535C42.1849 30.2535 43.5659 30.6909 44.8104 31.529C45.4053 31.8439 45.9146 32.3822 46.2731 33.075C46.6316 33.7679 46.8231 34.584 46.8231 35.4191C46.8231 36.2541 46.6316 37.0702 46.2731 37.763C45.9146 38.4559 45.4053 38.9942 44.8104 39.309C43.5652 40.144 42.1844 40.5796 40.7833 40.5796C39.3822 40.5796 38.0014 40.144 36.7562 39.309V39.309ZM37.9101 34.129C37.3716 34.529 37.0562 35.0091 37.0562 35.4191C37.0562 35.8291 37.3716 36.309 37.9101 36.709C38.8029 37.286 39.7863 37.5863 40.7833 37.5863C41.7803 37.5863 42.7637 37.286 43.6565 36.709C44.1873 36.309 44.5104 35.8291 44.5104 35.4191C44.5104 35.0091 44.1873 34.529 43.6565 34.129C42.7641 33.5506 41.7805 33.2495 40.7833 33.2495C39.7861 33.2495 38.8025 33.5506 37.9101 34.129Z" fill="#455A64"/>
<path d="M33.3099 50.869C32.3575 51.5116 31.5811 52.521 31.0867 53.759C30.5175 55.359 27.8404 55.919 26.2865 54.759L26.125 54.629C23.0479 52.189 23.0479 48.269 26.0711 45.799C29.4097 43.099 35.0484 43.039 38.4947 45.619C40.0333 46.779 39.264 48.759 37.1331 49.179C35.7902 49.4353 34.4946 50.008 33.3099 50.869V50.869Z" fill="#E0E0E0"/>
<path d="M30.3713 50.849L31.8252 49.749L33.2791 48.659L39.5101 51.749C40.4025 52.199 40.5333 53.149 39.7717 53.749L38.4409 54.749L37.1024 55.749C36.6936 56.028 36.2341 56.1568 35.7732 56.1216C35.3124 56.0863 34.8676 55.8884 34.4869 55.5491L30.3713 50.849Z" fill="#E0E0E0"/>
<path d="M33.3099 49.099C32.3575 49.7416 31.5811 50.751 31.0867 51.989C30.5175 53.589 27.8404 54.149 26.2865 52.989L26.125 52.869C23.0479 50.419 23.0479 46.499 26.0711 44.039C29.4097 41.329 35.0484 41.269 38.4947 43.859C40.0333 45.019 39.264 46.989 37.1331 47.409C35.7903 47.6655 34.4947 48.2382 33.3099 49.099V49.099Z" fill="#FAFAFA"/>
<path d="M30.3713 49.069L31.8252 47.979L33.2791 46.8891L39.5101 49.979C40.4025 50.419 40.5333 51.369 39.7717 51.979L38.4409 52.979L37.1024 53.979C36.6932 54.2559 36.2339 54.3835 35.7734 54.3483C35.3129 54.313 34.8683 54.1163 34.4869 53.779L30.3713 49.069Z" fill="#FAFAFA"/>
<path d="M125.144 89.929C126.096 89.2801 126.872 88.2681 127.368 87.029C127.937 85.429 130.614 84.879 132.168 86.029L132.329 86.149C135.406 88.599 135.406 92.519 132.383 94.979C129.045 97.689 123.406 97.749 119.96 95.159H119.921C118.383 93.999 119.152 92.019 121.283 91.599C122.637 91.3486 123.945 90.7829 125.144 89.929V89.929Z" fill="#E0E0E0"/>
<path d="M128.083 89.949L126.629 91.039L125.175 92.129L118.944 89.039C118.052 88.599 117.921 87.649 118.683 87.039L120.013 86.039L121.344 85.039C121.754 84.7609 122.214 84.6318 122.676 84.6652C123.138 84.6987 123.584 84.8934 123.967 85.229L128.083 89.949Z" fill="#E0E0E0"/>
<path d="M125.144 88.149C126.097 87.5064 126.873 86.4971 127.368 85.259C127.937 83.659 130.614 83.099 132.168 84.259L132.329 84.389C135.406 86.829 135.406 90.749 132.383 93.219C129.045 95.919 123.406 95.989 119.96 93.399H119.921C118.383 92.239 119.152 90.259 121.283 89.839C122.639 89.5871 123.947 89.0143 125.144 88.149V88.149Z" fill="#FAFAFA"/>
<path d="M128.083 88.169L126.629 89.2691L125.175 90.379L118.944 87.289C118.052 86.839 117.921 85.889 118.683 85.289L120.013 84.289L121.344 83.289C121.755 83.0124 122.215 82.8849 122.677 82.9201C123.139 82.9553 123.585 83.1519 123.967 83.489L128.083 88.169Z" fill="#FAFAFA"/>
<path d="M128.268 51.639C132.114 54.539 140.022 53.309 140.022 53.309C140.022 53.309 141.661 47.379 137.807 44.479C133.953 41.579 126.037 42.809 126.037 42.809C126.037 42.809 124.398 48.739 128.268 51.639Z" fill="#42A340"/>
<path d="M128.268 51.6391C132.114 54.5391 140.022 53.309 140.022 53.309L126.037 42.809C126.037 42.809 124.398 48.7391 128.268 51.6391Z" fill="#207C29"/>
<path d="M51.5799 51.639C47.7335 54.539 39.8255 53.309 39.8255 53.309C39.8255 53.309 38.187 47.379 42.041 44.479C45.895 41.579 53.8107 42.809 53.8107 42.809C53.8107 42.809 55.4492 48.739 51.5799 51.639Z" fill="#42A340"/>
<path d="M51.5799 51.6391C47.7335 54.5391 39.8255 53.309 39.8255 53.309L53.8492 42.809C53.8492 42.809 55.4493 48.7391 51.5799 51.6391Z" fill="#207C29"/>
<path d="M106.413 73.019C110.259 75.909 118.167 74.679 118.167 74.679C118.167 74.679 119.806 68.749 115.952 65.859C112.098 62.969 104.182 64.189 104.182 64.189C104.182 64.189 102.544 70.119 106.413 73.019Z" fill="#42A340"/>
<path d="M106.413 73.0191C110.259 75.9091 118.167 74.679 118.167 74.679L104.182 64.189C104.182 64.189 102.544 70.1191 106.413 73.0191Z" fill="#207C29"/>
<path d="M72.8808 73.019C69.0344 75.909 61.1187 74.679 61.1187 74.679C61.1187 74.679 59.4802 68.749 63.3342 65.859C67.1882 62.969 75.1039 64.189 75.1039 64.189C75.1039 64.189 76.7424 70.119 72.8808 73.019Z" fill="#42A340"/>
<path d="M72.8808 73.0191C69.0344 75.9091 61.1187 74.679 61.1187 74.679L75.1039 64.189C75.1039 64.189 76.7424 70.1191 72.8808 73.0191Z" fill="#207C29"/>
<path d="M91.6661 23.379C87.8198 26.269 79.9041 25.039 79.9041 25.039C79.9041 25.039 78.2656 19.109 82.1196 16.219C85.9736 13.329 93.8893 14.549 93.8893 14.549C93.8893 14.549 95.5278 20.499 91.6661 23.379Z" fill="#42A340"/>
<path d="M91.6661 23.379C87.8198 26.269 79.9041 25.039 79.9041 25.039L93.8893 14.549C93.8893 14.549 95.5278 20.499 91.6661 23.379Z" fill="#207C29"/>
<path d="M110.428 99.719C114.275 102.609 122.183 101.379 122.183 101.379C122.183 101.379 123.821 95.449 119.967 92.559C116.113 89.669 108.205 90.8891 108.205 90.8891C108.205 90.8891 106.559 96.819 110.428 99.719Z" fill="#42A340"/>
<path d="M110.428 99.719C114.275 102.609 122.183 101.379 122.183 101.379L108.205 90.8891C108.205 90.8891 106.559 96.819 110.428 99.719Z" fill="#207C29"/>
<path d="M39.6717 92.889C43.518 95.789 51.426 94.559 51.426 94.559C51.426 94.559 53.0722 88.629 49.2106 85.729C45.3489 82.829 37.4485 84.059 37.4485 84.059C37.4485 84.059 35.81 89.989 39.6717 92.889Z" fill="#42A340"/>
<path d="M39.6717 92.8891C43.518 95.7891 51.426 94.559 51.426 94.559L37.4485 84.059C37.4485 84.059 35.81 89.9891 39.6717 92.8891Z" fill="#207C29"/>
<path d="M88.9353 41.9491C87.53 41.9826 86.1418 41.5452 84.9043 40.679C84.3094 40.3642 83.8001 39.8259 83.4416 39.133C83.0831 38.4402 82.8917 37.6241 82.8917 36.789C82.8917 35.954 83.0831 35.1379 83.4416 34.445C83.8001 33.7521 84.3094 33.2139 84.9043 32.899C86.1488 32.0609 87.5299 31.6235 88.9314 31.6235C90.333 31.6235 91.7141 32.0609 92.9585 32.899C93.5535 33.2139 94.0627 33.7521 94.4212 34.445C94.7797 35.1379 94.9712 35.954 94.9712 36.789C94.9712 37.6241 94.7797 38.4402 94.4212 39.133C94.0627 39.8259 93.5535 40.3642 92.9585 40.679V40.679C91.7234 41.544 90.3379 41.9814 88.9353 41.9491V41.9491ZM88.9353 34.619C87.9341 34.5872 86.9434 34.8902 86.0582 35.499C85.5274 35.899 85.2044 36.379 85.2044 36.789C85.2044 37.199 85.5274 37.6791 86.0582 38.0791C86.951 38.656 87.9344 38.9563 88.9314 38.9563C89.9284 38.9563 90.9119 38.656 91.8046 38.0791C92.3431 37.6791 92.6585 37.199 92.6585 36.789C92.6585 36.379 92.3431 35.899 91.8046 35.499C90.9218 34.8915 89.9339 34.5885 88.9353 34.619V34.619Z" fill="#455A64"/>
<path d="M59.234 92.9191C58.2791 92.2728 57.5003 91.2604 57.0032 90.0191C56.4339 88.4191 53.7646 87.8691 52.203 89.0191C52.1489 89.0565 52.0974 89.1 52.0491 89.149C48.9721 91.589 48.9721 95.509 51.9876 97.969C55.3339 100.679 60.9726 100.739 64.4189 98.159H64.4573C65.9959 96.999 65.1881 95.019 63.0957 94.599C61.7401 94.3518 60.4311 93.7823 59.234 92.9191V92.9191Z" fill="#E0E0E0"/>
<path d="M56.257 92.939L57.7109 94.029L59.1725 95.129L65.3958 92.029C66.2959 91.589 66.4266 90.639 65.6651 90.029L64.3342 89.029L62.9957 88.029C62.587 87.7501 62.1275 87.6213 61.6666 87.6565C61.2057 87.6917 60.761 87.8897 60.3802 88.229L56.257 92.939Z" fill="#E0E0E0"/>
<path d="M59.234 91.139C58.2797 90.4965 57.5008 89.4874 57.0032 88.249C56.4339 86.649 53.7646 86.089 52.203 87.249L52.0491 87.369C48.9721 89.809 48.9721 93.739 51.9876 96.199C55.3339 98.909 60.9726 98.969 64.4189 96.379H64.4573C65.9959 95.219 65.1881 93.239 63.0957 92.819C61.7401 92.5718 60.4311 92.0023 59.234 91.139V91.139Z" fill="#FAFAFA"/>
<path d="M56.257 91.169L57.7109 92.259L59.1725 93.349L65.3958 90.259C66.2959 89.809 66.4266 88.859 65.6651 88.259L64.3342 87.259L62.9957 86.259C62.5865 85.9822 62.1273 85.8546 61.6668 85.8898C61.2062 85.9251 60.7616 86.1217 60.3802 86.459L56.257 91.169Z" fill="#FAFAFA"/>
<path d="M92.3662 25.529C91.4118 26.1716 90.6329 27.1807 90.1353 28.419C89.5661 30.019 86.8967 30.579 85.3351 29.419L85.1813 29.299C82.1042 26.859 82.1042 22.929 85.1197 20.469C88.466 17.759 94.1047 17.699 97.551 20.289H97.5895C99.128 21.449 98.3203 23.429 96.2279 23.849C94.8722 24.0963 93.5632 24.6657 92.3662 25.529V25.529Z" fill="#E0E0E0"/>
<path d="M89.4199 25.499L90.8738 24.409L92.3277 23.319L98.5587 26.409C99.4588 26.859 99.5896 27.809 98.828 28.409L97.4895 29.409L96.1586 30.379C95.7494 30.6559 95.2902 30.7835 94.8297 30.7482C94.3691 30.713 93.9246 30.5163 93.5432 30.179L89.4199 25.499Z" fill="#E0E0E0"/>
<path d="M92.3662 23.749C91.4113 24.3953 90.6324 25.4077 90.1353 26.649C89.5661 28.249 86.8967 28.799 85.3351 27.649C85.281 27.6116 85.2295 27.5681 85.1813 27.519C82.1042 25.079 82.1042 21.159 85.1197 18.699C88.466 15.989 94.1047 15.929 97.551 18.509H97.5895C99.128 19.669 98.3203 21.649 96.2279 22.069C94.8722 22.3163 93.5632 22.8857 92.3662 23.749V23.749Z" fill="#FAFAFA"/>
<path d="M89.4199 23.729L90.8738 22.639L92.3277 21.539L98.5587 24.639C99.4588 25.079 99.5896 26.029 98.828 26.639L97.4895 27.639L96.1586 28.639C95.7499 28.918 95.2904 29.0468 94.8295 29.0116C94.3687 28.9763 93.9239 28.7784 93.5432 28.439L89.4199 23.729Z" fill="#FAFAFA"/>
<path d="M107.29 46.569L103.444 45.929C103.79 43.299 102.62 40.5891 99.9434 38.5791C97.6687 36.9805 95.1424 36.0808 92.5585 35.949V32.659C96.3749 32.45 100.166 33.5611 103.544 35.879C107.367 38.769 108.621 42.879 107.29 46.569Z" fill="#EFC9EB"/>
<path d="M146.499 85.3791L142.653 84.739C142.991 82.109 141.822 79.3991 139.145 77.3891C136.87 75.7905 134.344 74.8908 131.76 74.7591V71.469C135.577 71.2571 139.368 72.3684 142.745 74.689C146.576 77.619 147.83 81.7291 146.499 85.3791Z" fill="#EFC9EB"/>
<path d="M23.3095 77.249L27.1558 76.599C26.8173 73.979 27.9866 71.259 30.6636 69.249C32.939 67.654 35.4653 66.7577 38.0485 66.629V63.379C34.2327 63.164 30.4415 64.2719 27.0635 66.589C23.2326 69.449 21.9787 73.559 23.3095 77.249Z" fill="#EFC9EB"/>
<path d="M69.8576 104.159L73.7423 103.509C73.3962 100.889 74.5655 98.1691 77.2425 96.1591C79.5179 94.564 82.0442 93.6677 84.6274 93.5391V90.249C80.8117 90.0364 77.021 91.1441 73.6424 93.459C69.7807 96.379 68.5267 100.469 69.8576 104.159Z" fill="#EFC9EB"/>
<path d="M72.4346 68.379L76.2809 67.729C75.9424 65.109 77.104 62.389 79.7811 60.379C82.0564 58.784 84.5827 57.8877 87.166 57.759V54.469C83.3523 54.2505 79.5629 55.3586 76.1886 57.679C72.3577 60.619 71.1038 64.719 72.4346 68.379Z" fill="#EFC9EB"/>
<path d="M59.034 28.499L62.9188 27.859C62.5726 25.229 63.7419 22.5191 66.4189 20.5091C68.6937 18.9105 71.22 18.0108 73.8039 17.8791V14.5891C69.9873 14.3771 66.196 15.4884 62.8188 17.809C58.9571 20.699 57.6955 24.809 59.034 28.499Z" fill="#EFC9EB"/>
<path d="M104.367 17.859C103.846 18.2041 103.27 18.384 102.686 18.384C102.102 18.384 101.526 18.2041 101.005 17.859C100.802 17.77 100.626 17.6005 100.501 17.3745C100.377 17.1485 100.309 16.8772 100.309 16.599C100.309 16.3208 100.377 16.0496 100.501 15.8236C100.626 15.5976 100.802 15.4281 101.005 15.3391C101.526 14.994 102.102 14.8141 102.686 14.8141C103.27 14.8141 103.846 14.994 104.367 15.3391C104.569 15.4281 104.746 15.5976 104.87 15.8236C104.995 16.0496 105.062 16.3208 105.062 16.599C105.062 16.8772 104.995 17.1485 104.87 17.3745C104.746 17.6005 104.569 17.77 104.367 17.859Z" fill="#C0751D"/>
<path opacity="0.4" d="M104.367 17.859C103.846 18.2041 103.27 18.384 102.686 18.384C102.102 18.384 101.526 18.2041 101.005 17.859C100.802 17.77 100.626 17.6005 100.501 17.3745C100.377 17.1485 100.309 16.8772 100.309 16.599C100.309 16.3208 100.377 16.0496 100.501 15.8236C100.626 15.5976 100.802 15.4281 101.005 15.3391C101.526 14.994 102.102 14.8141 102.686 14.8141C103.27 14.8141 103.846 14.994 104.367 15.3391C104.569 15.4281 104.746 15.5976 104.87 15.8236C104.995 16.0496 105.062 16.3208 105.062 16.599C105.062 16.8772 104.995 17.1485 104.87 17.3745C104.746 17.6005 104.569 17.77 104.367 17.859Z" fill="white"/>
<path d="M100.005 44.0791C99.4834 44.4195 98.9078 44.5967 98.3241 44.5967C97.7405 44.5967 97.1649 44.4195 96.6433 44.0791C96.4415 43.9874 96.2665 43.8164 96.1428 43.5897C96.019 43.3631 95.9525 43.092 95.9525 42.814C95.9525 42.5361 96.019 42.265 96.1428 42.0384C96.2665 41.8117 96.4415 41.6407 96.6433 41.5491C97.1649 41.2086 97.7405 41.0314 98.3241 41.0314C98.9078 41.0314 99.4834 41.2086 100.005 41.5491C100.207 41.6407 100.382 41.8117 100.506 42.0384C100.629 42.265 100.696 42.5361 100.696 42.814C100.696 43.092 100.629 43.3631 100.506 43.5897C100.382 43.8164 100.207 43.9874 100.005 44.0791V44.0791Z" fill="#C0751D"/>
<path opacity="0.4" d="M100.005 44.0791C99.4834 44.4195 98.9078 44.5967 98.3241 44.5967C97.7405 44.5967 97.1649 44.4195 96.6433 44.0791C96.4415 43.9874 96.2665 43.8164 96.1428 43.5897C96.019 43.3631 95.9525 43.092 95.9525 42.814C95.9525 42.5361 96.019 42.265 96.1428 42.0384C96.2665 41.8117 96.4415 41.6407 96.6433 41.5491C97.1649 41.2086 97.7405 41.0314 98.3241 41.0314C98.9078 41.0314 99.4834 41.2086 100.005 41.5491C100.207 41.6407 100.382 41.8117 100.506 42.0384C100.629 42.265 100.696 42.5361 100.696 42.814C100.696 43.092 100.629 43.3631 100.506 43.5897C100.382 43.8164 100.207 43.9874 100.005 44.0791V44.0791Z" fill="white"/>
<path d="M77.1271 44.379C76.6055 44.7195 76.0299 44.8967 75.4463 44.8967C74.8626 44.8967 74.287 44.7195 73.7654 44.379C73.5627 44.29 73.3865 44.1205 73.2617 43.8945C73.1369 43.6685 73.0698 43.3972 73.0698 43.119C73.0698 42.8408 73.1369 42.5696 73.2617 42.3436C73.3865 42.1176 73.5627 41.9481 73.7654 41.8591C74.286 41.514 74.862 41.3341 75.4463 41.3341C76.0306 41.3341 76.6066 41.514 77.1271 41.8591C77.3298 41.9481 77.506 42.1176 77.6308 42.3436C77.7555 42.5696 77.8227 42.8408 77.8227 43.119C77.8227 43.3972 77.7555 43.6685 77.6308 43.8945C77.506 44.1205 77.3298 44.29 77.1271 44.379Z" fill="#C0751D"/>
<path opacity="0.4" d="M77.1271 44.379C76.6055 44.7195 76.0299 44.8967 75.4463 44.8967C74.8626 44.8967 74.287 44.7195 73.7654 44.379C73.5627 44.29 73.3865 44.1205 73.2617 43.8945C73.1369 43.6685 73.0698 43.3972 73.0698 43.119C73.0698 42.8408 73.1369 42.5696 73.2617 42.3436C73.3865 42.1176 73.5627 41.9481 73.7654 41.8591C74.286 41.514 74.862 41.3341 75.4463 41.3341C76.0306 41.3341 76.6066 41.514 77.1271 41.8591C77.3298 41.9481 77.506 42.1176 77.6308 42.3436C77.7555 42.5696 77.8227 42.8408 77.8227 43.119C77.8227 43.3972 77.7555 43.6685 77.6308 43.8945C77.506 44.1205 77.3298 44.29 77.1271 44.379Z" fill="white"/>
<path d="M24.4788 60.939C23.9582 61.2841 23.3822 61.464 22.7979 61.464C22.2136 61.464 21.6376 61.2841 21.1171 60.939C20.9143 60.85 20.7382 60.6805 20.6134 60.4545C20.4886 60.2285 20.4215 59.9572 20.4215 59.679C20.4215 59.4008 20.4886 59.1296 20.6134 58.9036C20.7382 58.6776 20.9143 58.5081 21.1171 58.4191C21.6376 58.074 22.2136 57.8941 22.7979 57.8941C23.3822 57.8941 23.9582 58.074 24.4788 58.4191C24.6815 58.5081 24.8577 58.6776 24.9824 58.9036C25.1072 59.1296 25.1743 59.4008 25.1743 59.679C25.1743 59.9572 25.1072 60.2285 24.9824 60.4545C24.8577 60.6805 24.6815 60.85 24.4788 60.939Z" fill="#C0751D"/>
<path opacity="0.4" d="M24.4788 60.939C23.9582 61.2841 23.3822 61.464 22.7979 61.464C22.2136 61.464 21.6376 61.2841 21.1171 60.939C20.9143 60.85 20.7382 60.6805 20.6134 60.4545C20.4886 60.2285 20.4215 59.9572 20.4215 59.679C20.4215 59.4008 20.4886 59.1296 20.6134 58.9036C20.7382 58.6776 20.9143 58.5081 21.1171 58.4191C21.6376 58.074 22.2136 57.8941 22.7979 57.8941C23.3822 57.8941 23.9582 58.074 24.4788 58.4191C24.6815 58.5081 24.8577 58.6776 24.9824 58.9036C25.1072 59.1296 25.1743 59.4008 25.1743 59.679C25.1743 59.9572 25.1072 60.2285 24.9824 60.4545C24.8577 60.6805 24.6815 60.85 24.4788 60.939Z" fill="white"/>
<path d="M33.2483 84.909C32.7267 85.2495 32.1512 85.4267 31.5675 85.4267C30.9839 85.4267 30.4083 85.2495 29.8867 84.909C29.6839 84.82 29.5078 84.6505 29.383 84.4245C29.2582 84.1985 29.1911 83.9272 29.1911 83.649C29.1911 83.3708 29.2582 83.0996 29.383 82.8736C29.5078 82.6476 29.6839 82.4781 29.8867 82.3891C30.4072 82.044 30.9832 81.8641 31.5675 81.8641C32.1518 81.8641 32.7278 82.044 33.2483 82.3891C33.4511 82.4781 33.6272 82.6476 33.752 82.8736C33.8768 83.0996 33.9439 83.3708 33.9439 83.649C33.9439 83.9272 33.8768 84.1985 33.752 84.4245C33.6272 84.6505 33.4511 84.82 33.2483 84.909V84.909Z" fill="#C0751D"/>
<path opacity="0.4" d="M33.2483 84.909C32.7267 85.2495 32.1512 85.4267 31.5675 85.4267C30.9839 85.4267 30.4083 85.2495 29.8867 84.909C29.6839 84.82 29.5078 84.6505 29.383 84.4245C29.2582 84.1985 29.1911 83.9272 29.1911 83.649C29.1911 83.3708 29.2582 83.0996 29.383 82.8736C29.5078 82.6476 29.6839 82.4781 29.8867 82.3891C30.4072 82.044 30.9832 81.8641 31.5675 81.8641C32.1518 81.8641 32.7278 82.044 33.2483 82.3891C33.4511 82.4781 33.6272 82.6476 33.752 82.8736C33.8768 83.0996 33.9439 83.3708 33.9439 83.649C33.9439 83.9272 33.8768 84.1985 33.752 84.4245C33.6272 84.6505 33.4511 84.82 33.2483 84.909V84.909Z" fill="white"/>
<path d="M80.5965 77.5491C80.0749 77.8895 79.4993 78.0667 78.9156 78.0667C78.332 78.0667 77.7564 77.8895 77.2348 77.5491C77.032 77.46 76.8559 77.2905 76.7311 77.0645C76.6063 76.8384 76.5392 76.5673 76.5392 76.289C76.5392 76.0108 76.6063 75.7396 76.7311 75.5136C76.8559 75.2876 77.032 75.1181 77.2348 75.029C77.7553 74.684 78.3313 74.5041 78.9156 74.5041C79.4999 74.5041 80.0759 74.684 80.5965 75.029C80.7992 75.1181 80.9754 75.2876 81.1002 75.5136C81.2249 75.7396 81.292 76.0108 81.292 76.289C81.292 76.5673 81.2249 76.8384 81.1002 77.0645C80.9754 77.2905 80.7992 77.46 80.5965 77.5491V77.5491Z" fill="#C0751D"/>
<path opacity="0.4" d="M80.5965 77.5491C80.0749 77.8895 79.4993 78.0667 78.9156 78.0667C78.332 78.0667 77.7564 77.8895 77.2348 77.5491C77.032 77.46 76.8559 77.2905 76.7311 77.0645C76.6063 76.8384 76.5392 76.5673 76.5392 76.289C76.5392 76.0108 76.6063 75.7396 76.7311 75.5136C76.8559 75.2876 77.032 75.1181 77.2348 75.029C77.7553 74.684 78.3313 74.5041 78.9156 74.5041C79.4999 74.5041 80.0759 74.684 80.5965 75.029C80.7992 75.1181 80.9754 75.2876 81.1002 75.5136C81.2249 75.7396 81.292 76.0108 81.292 76.289C81.292 76.5673 81.2249 76.8384 81.1002 77.0645C80.9754 77.2905 80.7992 77.46 80.5965 77.5491V77.5491Z" fill="white"/>
<path d="M155.392 62.679C154.87 63.0194 154.295 63.1967 153.711 63.1967C153.127 63.1967 152.552 63.0194 152.03 62.679C151.828 62.5873 151.653 62.4164 151.53 62.1897C151.406 61.9631 151.339 61.692 151.339 61.414C151.339 61.1361 151.406 60.865 151.53 60.6384C151.653 60.4117 151.828 60.2407 152.03 60.149C152.552 59.8086 153.127 59.6314 153.711 59.6314C154.295 59.6314 154.87 59.8086 155.392 60.149C155.594 60.2407 155.769 60.4117 155.892 60.6384C156.016 60.865 156.083 61.1361 156.083 61.414C156.083 61.692 156.016 61.9631 155.892 62.1897C155.769 62.4164 155.594 62.5873 155.392 62.679Z" fill="#C0751D"/>
<path opacity="0.4" d="M155.392 62.679C154.87 63.0194 154.295 63.1967 153.711 63.1967C153.127 63.1967 152.552 63.0194 152.03 62.679C151.828 62.5873 151.653 62.4164 151.53 62.1897C151.406 61.9631 151.339 61.692 151.339 61.414C151.339 61.1361 151.406 60.865 151.53 60.6384C151.653 60.4117 151.828 60.2407 152.03 60.149C152.552 59.8086 153.127 59.6314 153.711 59.6314C154.295 59.6314 154.87 59.8086 155.392 60.149C155.594 60.2407 155.769 60.4117 155.892 60.6384C156.016 60.865 156.083 61.1361 156.083 61.414C156.083 61.692 156.016 61.9631 155.892 62.1897C155.769 62.4164 155.594 62.5873 155.392 62.679Z" fill="white"/>
<path d="M141.314 91.8891C140.794 92.2341 140.218 92.414 139.634 92.414C139.049 92.414 138.473 92.2341 137.953 91.8891C137.75 91.8 137.574 91.6305 137.449 91.4045C137.324 91.1784 137.257 90.9072 137.257 90.629C137.257 90.3508 137.324 90.0796 137.449 89.8536C137.574 89.6276 137.75 89.4581 137.953 89.369C138.473 89.024 139.049 88.8441 139.634 88.8441C140.218 88.8441 140.794 89.024 141.314 89.369C141.517 89.4581 141.693 89.6276 141.818 89.8536C141.943 90.0796 142.01 90.3508 142.01 90.629C142.01 90.9072 141.943 91.1784 141.818 91.4045C141.693 91.6305 141.517 91.8 141.314 91.8891Z" fill="#C0751D"/>
<path opacity="0.4" d="M141.314 91.8891C140.794 92.2341 140.218 92.414 139.634 92.414C139.049 92.414 138.473 92.2341 137.953 91.8891C137.75 91.8 137.574 91.6305 137.449 91.4045C137.324 91.1784 137.257 90.9072 137.257 90.629C137.257 90.3508 137.324 90.0796 137.449 89.8536C137.574 89.6276 137.75 89.4581 137.953 89.369C138.473 89.024 139.049 88.8441 139.634 88.8441C140.218 88.8441 140.794 89.024 141.314 89.369C141.517 89.4581 141.693 89.6276 141.818 89.8536C141.943 90.0796 142.01 90.3508 142.01 90.629C142.01 90.9072 141.943 91.1784 141.818 91.4045C141.693 91.6305 141.517 91.8 141.314 91.8891Z" fill="white"/>
<path d="M135.776 27.759C135.255 28.1041 134.679 28.284 134.095 28.284C133.511 28.284 132.935 28.1041 132.414 27.759C132.211 27.67 132.035 27.5005 131.91 27.2745C131.786 27.0484 131.718 26.7772 131.718 26.499C131.718 26.2208 131.786 25.9496 131.91 25.7236C132.035 25.4976 132.211 25.3281 132.414 25.239C132.935 24.894 133.511 24.7141 134.095 24.7141C134.679 24.7141 135.255 24.894 135.776 25.239C135.978 25.3281 136.155 25.4976 136.279 25.7236C136.404 25.9496 136.471 26.2208 136.471 26.499C136.471 26.7772 136.404 27.0484 136.279 27.2745C136.155 27.5005 135.978 27.67 135.776 27.759V27.759Z" fill="#C0751D"/>
<path opacity="0.4" d="M135.776 27.759C135.255 28.1041 134.679 28.284 134.095 28.284C133.511 28.284 132.935 28.1041 132.414 27.759C132.211 27.67 132.035 27.5005 131.91 27.2745C131.786 27.0484 131.718 26.7772 131.718 26.499C131.718 26.2208 131.786 25.9496 131.91 25.7236C132.035 25.4976 132.211 25.3281 132.414 25.239C132.935 24.894 133.511 24.7141 134.095 24.7141C134.679 24.7141 135.255 24.894 135.776 25.239C135.978 25.3281 136.155 25.4976 136.279 25.7236C136.404 25.9496 136.471 26.2208 136.471 26.499C136.471 26.7772 136.404 27.0484 136.279 27.2745C136.155 27.5005 135.978 27.67 135.776 27.759V27.759Z" fill="white"/>
<path d="M58.6648 83.119C58.1442 83.4641 57.5682 83.644 56.9839 83.644C56.3996 83.644 55.8236 83.4641 55.3031 83.119C55.1004 83.03 54.9242 82.8605 54.7994 82.6345C54.6746 82.4084 54.6075 82.1373 54.6075 81.8591C54.6075 81.5808 54.6746 81.3096 54.7994 81.0836C54.9242 80.8576 55.1004 80.6881 55.3031 80.599C55.8247 80.2586 56.4003 80.0814 56.9839 80.0814C57.5676 80.0814 58.1432 80.2586 58.6648 80.599C58.8675 80.6881 59.0437 80.8576 59.1685 81.0836C59.2932 81.3096 59.3604 81.5808 59.3604 81.8591C59.3604 82.1373 59.2932 82.4084 59.1685 82.6345C59.0437 82.8605 58.8675 83.03 58.6648 83.119V83.119Z" fill="#C0751D"/>
<path opacity="0.4" d="M58.6648 83.119C58.1442 83.4641 57.5682 83.644 56.9839 83.644C56.3996 83.644 55.8236 83.4641 55.3031 83.119C55.1004 83.03 54.9242 82.8605 54.7994 82.6345C54.6746 82.4084 54.6075 82.1373 54.6075 81.8591C54.6075 81.5808 54.6746 81.3096 54.7994 81.0836C54.9242 80.8576 55.1004 80.6881 55.3031 80.599C55.8247 80.2586 56.4003 80.0814 56.9839 80.0814C57.5676 80.0814 58.1432 80.2586 58.6648 80.599C58.8675 80.6881 59.0437 80.8576 59.1685 81.0836C59.2932 81.3096 59.3604 81.5808 59.3604 81.8591C59.3604 82.1373 59.2932 82.4084 59.1685 82.6345C59.0437 82.8605 58.8675 83.03 58.6648 83.119V83.119Z" fill="white"/>
<path d="M99.3357 80.219C98.8141 80.5594 98.2385 80.7367 97.6548 80.7367C97.0712 80.7367 96.4956 80.5594 95.974 80.219C95.7722 80.1274 95.5972 79.9563 95.4735 79.7297C95.3497 79.503 95.2832 79.232 95.2832 78.9541C95.2832 78.6761 95.3497 78.405 95.4735 78.1784C95.5972 77.9517 95.7722 77.7807 95.974 77.689C96.4956 77.3486 97.0712 77.1714 97.6548 77.1714C98.2385 77.1714 98.8141 77.3486 99.3357 77.689C99.5375 77.7807 99.7124 77.9517 99.8362 78.1784C99.96 78.405 100.026 78.6761 100.026 78.9541C100.026 79.232 99.96 79.503 99.8362 79.7297C99.7124 79.9563 99.5375 80.1274 99.3357 80.219V80.219Z" fill="#C0751D"/>
<path opacity="0.4" d="M99.3357 80.219C98.8141 80.5594 98.2385 80.7367 97.6548 80.7367C97.0712 80.7367 96.4956 80.5594 95.974 80.219C95.7722 80.1274 95.5972 79.9563 95.4735 79.7297C95.3497 79.503 95.2832 79.232 95.2832 78.9541C95.2832 78.6761 95.3497 78.405 95.4735 78.1784C95.5972 77.9517 95.7722 77.7807 95.974 77.689C96.4956 77.3486 97.0712 77.1714 97.6548 77.1714C98.2385 77.1714 98.8141 77.3486 99.3357 77.689C99.5375 77.7807 99.7124 77.9517 99.8362 78.1784C99.96 78.405 100.026 78.6761 100.026 78.9541C100.026 79.232 99.96 79.503 99.8362 79.7297C99.7124 79.9563 99.5375 80.1274 99.3357 80.219V80.219Z" fill="white"/>
<path d="M65.4882 105.379C64.9676 105.724 64.3916 105.904 63.8073 105.904C63.223 105.904 62.647 105.724 62.1265 105.379C61.9237 105.29 61.7476 105.121 61.6228 104.894C61.498 104.668 61.4309 104.397 61.4309 104.119C61.4309 103.841 61.498 103.57 61.6228 103.344C61.7476 103.118 61.9237 102.948 62.1265 102.859C62.647 102.514 63.223 102.334 63.8073 102.334C64.3916 102.334 64.9676 102.514 65.4882 102.859C65.6909 102.948 65.8671 103.118 65.9918 103.344C66.1166 103.57 66.1837 103.841 66.1837 104.119C66.1837 104.397 66.1166 104.668 65.9918 104.894C65.8671 105.121 65.6909 105.29 65.4882 105.379V105.379Z" fill="#C0751D"/>
<path opacity="0.4" d="M65.4882 105.379C64.9676 105.724 64.3916 105.904 63.8073 105.904C63.223 105.904 62.647 105.724 62.1265 105.379C61.9237 105.29 61.7476 105.121 61.6228 104.894C61.498 104.668 61.4309 104.397 61.4309 104.119C61.4309 103.841 61.498 103.57 61.6228 103.344C61.7476 103.118 61.9237 102.948 62.1265 102.859C62.647 102.514 63.223 102.334 63.8073 102.334C64.3916 102.334 64.9676 102.514 65.4882 102.859C65.6909 102.948 65.8671 103.118 65.9918 103.344C66.1166 103.57 66.1837 103.841 66.1837 104.119C66.1837 104.397 66.1166 104.668 65.9918 104.894C65.8671 105.121 65.6909 105.29 65.4882 105.379V105.379Z" fill="white"/>
</svg>
